<?xml version="1.0" encoding="UTF-8"?>
<svg xmlns="http://www.w3.org/2000/svg" viewBox="0 0 666.67 666.67">
  <defs>
    <style>
      .cls-1 {
        fill: #fff;
      }

      .cls-2 {
        fill: #c13584;
      }
    </style>
  </defs>
  <circle class="cls-2" cx="333.33" cy="333.33" r="333.33"/>
  <path class="cls-1" d="m333.33,169.37c53.4,0,59.73.2,80.82,1.16,19.5.89,30.09,4.15,37.14,6.89,9.34,3.63,16,7.96,23,14.96,7,7,11.33,13.66,14.96,23,2.74,7.05,6,17.64,6.89,37.14.96,21.09,1.17,27.41,1.17,80.82s-.2,59.73-1.17,80.82c-.89,19.5-4.15,30.09-6.89,37.14-3.63,9.34-7.96,16-14.96,23-7,7-13.66,11.33-23,14.96-7.05,2.74-17.64,6-37.14,6.89-21.09.96-27.41,1.17-80.82,1.17s-59.73-.2-80.82-1.17c-19.5-.89-30.09-4.15-37.14-6.89-9.34-3.63-16-7.96-23-14.96s-11.33-13.66-14.96-23c-2.74-7.05-6-17.64-6.89-37.14-.96-21.09-1.16-27.42-1.16-80.82s.2-59.73,1.16-80.82c.89-19.5,4.15-30.09,6.89-37.14,3.63-9.34,7.96-16,14.96-23,7-7,13.66-11.33,23-14.96,7.05-2.74,17.64-6,37.14-6.89,21.09-.96,27.42-1.16,80.82-1.16Zm0-36.04c-54.32,0-61.13.23-82.46,1.2-21.29.97-35.83,4.35-48.55,9.3-13.15,5.11-24.3,11.95-35.42,23.07-11.12,11.12-17.96,22.27-23.07,35.42-4.95,12.72-8.33,27.26-9.3,48.55-.97,21.33-1.2,28.14-1.2,82.46s.23,61.13,1.2,82.46c.97,21.29,4.35,35.83,9.3,48.55,5.11,13.15,11.95,24.3,23.07,35.43,11.12,11.12,22.27,17.96,35.42,23.07,12.72,4.94,27.26,8.33,48.55,9.3,21.33.97,28.14,1.2,82.46,1.2s61.13-.23,82.46-1.2c21.29-.97,35.83-4.35,48.55-9.3,13.15-5.11,24.31-11.95,35.42-23.07,11.12-11.12,17.96-22.27,23.07-35.43,4.94-12.72,8.33-27.26,9.3-48.55.97-21.33,1.2-28.14,1.2-82.46s-.23-61.13-1.2-82.46c-.97-21.29-4.35-35.83-9.3-48.55-5.11-13.15-11.95-24.3-23.07-35.42-11.12-11.12-22.27-17.96-35.42-23.07-12.72-4.95-27.26-8.33-48.55-9.3-21.33-.97-28.14-1.2-82.46-1.2Z"/>
  <path class="cls-1" d="m333.43,230.72c-56.72,0-102.7,45.98-102.7,102.7s45.98,102.7,102.7,102.7,102.7-45.98,102.7-102.7-45.98-102.7-102.7-102.7Zm0,169.37c-36.82,0-66.67-29.85-66.67-66.67s29.85-66.67,66.67-66.67,66.67,29.85,66.67,66.67-29.85,66.67-66.67,66.67Z"/>
  <path class="cls-1" d="m464.18,226.6c0,13.25-10.75,24-24,24s-24-10.75-24-24,10.75-24,24-24,24,10.75,24,24Z"/>
</svg>