<?xml version="1.0" encoding="utf-8"?>
<!-- Generator: Adobe Illustrator 27.6.1, SVG Export Plug-In . SVG Version: 6.00 Build 0)  -->
<svg version="1.1" id="Layer_1" xmlns="http://www.w3.org/2000/svg" xmlns:xlink="http://www.w3.org/1999/xlink" x="0px" y="0px"
	 viewBox="0 0 800 800" style="enable-background:new 0 0 800 800;" xml:space="preserve">
<style type="text/css">
	.st0{fill:#2CCF54;}
	.st1{fill:none;stroke:#FFFFFF;stroke-width:22;stroke-linejoin:round;stroke-miterlimit:133.3333;}
</style>
<g>
	<path class="st0" d="M397.3,468.6c38.8,0,70.5-31.6,70.5-70.5c0-15.3-5-29.5-13.3-41.1c-12.8-17.7-33.6-29.4-57-29.4
		s-44.2,11.6-57,29.4c-8.3,11.6-13.3,25.8-13.3,41.1C327,437,358.5,468.6,397.3,468.6L397.3,468.6z"/>
	<polygon class="st0" points="551.1,312.2 551.1,253.1 551.1,244.4 542.3,244.4 483.2,244.6 483.5,312.4 	"/>
	<path class="st0" d="M506.7,398.3c0,60.3-49.1,109.4-109.4,109.4s-109.4-49.1-109.4-109.4c0-14.5,3-28.4,8.1-41.1h-59.7v163.7
		c0,21.1,17.2,38.3,38.3,38.3h245.3c21.1,0,38.3-17.2,38.3-38.3V357.2h-59.7C503.9,369.9,506.7,383.8,506.7,398.3L506.7,398.3z"/>
	<path class="st0" d="M397.3-1.7c-220.9,0-400,179.1-400,400s179.1,400,400,400s400-179.1,400-400S618.2-1.7,397.3-1.7z
		 M597.3,357.2v163.7c0,42.7-34.7,77.3-77.3,77.3H274.6c-42.7,0-77.3-34.7-77.3-77.3V275.5c0-42.7,34.7-77.3,77.3-77.3h245.3
		c42.7,0,77.3,34.7,77.3,77.3L597.3,357.2L597.3,357.2L597.3,357.2z"/>
	<rect x="158.3" y="178.3" class="st0" width="491" height="447"/>
</g>
<path class="st1" d="M563.4,330.5h82.2V323h-89.7v150.6h89.7v-7.5h-82.2V402h82.2v-7.5h-82.2V330.5z M156.4,466.1V323h-7.5v150.6
	h89.7v-7.5H156.4z M486.5,467.8L379.3,323h-12.4v150.6h7.5V328.9l107.2,144.7h12.5V323h-7.5V467.8z M297.4,323v150.6h7.5V323H297.4z
	"/>
</svg>
