<?xml version="1.0" encoding="utf-8"?>
<!-- Generator: Adobe Illustrator 27.6.1, SVG Export Plug-In . SVG Version: 6.00 Build 0)  -->
<svg version="1.1" id="_" xmlns="http://www.w3.org/2000/svg" xmlns:xlink="http://www.w3.org/1999/xlink" x="0px" y="0px"
	 viewBox="0 0 395.2 87" style="enable-background:new 0 0 395.2 87;" xml:space="preserve">
<style type="text/css">
	.st0{fill-rule:evenodd;clip-rule:evenodd;}
</style>
<path class="st0" d="M1.4,27.1c-0.4,0-0.8-0.1-1-0.4S0,26.1,0,25.8c0-0.4,0.2-0.7,0.5-0.9s0.6-0.4,1.1-0.4c1.2,0,2.2,0.1,3.1,0.4
	c0.8,0.3,1.5,0.7,2,1.1c1,1,1.5,2.2,1.6,3.7l2.2,18.9l9-22.9c0.2-0.4,0.5-0.6,0.8-0.8c0.4-0.2,0.7-0.2,1.1-0.1c0.5,0.2,0.9,0.5,1,1
	l4.5,23L35,24.4c0.1-0.4,0.4-0.6,0.7-0.8c0.3-0.2,0.7-0.2,1.1-0.1s0.7,0.3,0.9,0.6c0.2,0.3,0.2,0.6,0.1,1l-9.9,29.8
	c-0.2,0.5-0.5,0.9-1.2,1c-0.4,0.1-0.8,0-1.1-0.2s-0.5-0.5-0.6-0.8l-4.7-23.6L11,54.9c-0.2,0.5-0.6,0.8-1.2,0.9
	c-0.4,0-0.8-0.1-1.1-0.3S8.2,55,8.2,54.6L5.3,30c-0.1-1-0.4-1.7-0.9-2.1C4,27.4,3,27.1,1.4,27.1L1.4,27.1z"/>
<path class="st0" d="M83,54.2l-0.2,1.3c0,0.4-0.2,0.7-0.5,0.9s-0.7,0.3-1.1,0.3s-0.7-0.1-0.9-0.4c-0.2-0.3-0.3-0.6-0.3-1l0.3-2.6
	c0,0,0-0.1,0.1-0.2v-0.1l3.4-27.2c0-0.4,0.2-0.6,0.5-0.8c0.3-0.2,0.6-0.3,0.9-0.4c4.9-0.5,8.9-0.2,12,0.9s5.4,2.7,6.8,4.8
	c0.8,1.2,1.4,2.7,1.8,4.2c0.3,1.6,0.4,3.1,0.2,4.6c-0.2,1.5-0.5,3-1.2,4.6c-0.6,1.6-1.5,3.1-2.5,4.3c-1.9,2.3-4.5,4.1-7.8,5.4
	C91.2,54.3,87.4,54.7,83,54.2L83,54.2L83,54.2z M86.4,26.5l-3.1,25.1c3.8,0.4,7.1,0.1,9.9-1s5-2.6,6.6-4.6c0.9-1,1.6-2.3,2.1-3.7
	s0.9-2.7,1-3.9s0.1-2.4-0.2-3.8c-0.2-1.3-0.7-2.5-1.4-3.5c-1.1-1.6-2.9-2.9-5.4-3.8C93.5,26.5,90.3,26.2,86.4,26.5z"/>
<path class="st0" d="M43.3,41.2c-0.8,0.3-1.7-0.1-2-0.9s0.1-1.7,0.9-2c0,0,5.5-2,11.8-5.6c-0.8-1.8-1.6-3.6-2.5-5.5
	c-4.5-9.6-2.9-16.9,1-21.5c2.9-3.4,7.1-5.4,11.1-5.7c4.1-0.4,8.1,1,10.2,4.2c2.2,3.2,2.4,8.3-1.1,15.2c-3,6-9.2,11-15.1,14.6
	c0.4,1.1,0.8,2.2,1.2,3.3c6.5-4,12.7-8.3,16.9-13.4c0.5-0.6,1.5-0.7,2.1-0.2s0.7,1.5,0.2,2.1C73.4,31.5,66.7,36,59.7,40.3
	c0.9,3,1.6,5.9,2,8.8c0.7,5.2-0.1,10.7-2,15.6c-2,5.2-5.2,9.8-9.1,13c-3.8,3.2-8.2,4.6-12.4,4.6c-2.8,0-5.5-0.7-7.7-1.9
	c-2.3-1.3-4.1-3.2-5.1-5.6c-1.1-2.5-1.3-5.6-0.3-9c3-10.5,14.7-17.3,26.8-24.3c1.4-0.8,2.8-1.7,4.3-2.5l-0.1-0.3
	c-0.3-1-0.7-2-1.1-3.1C48.8,39.2,43.3,41.2,43.3,41.2L43.3,41.2L43.3,41.2z M56.7,31.2L56.7,31.2c5.4-3.4,10.9-7.9,13.5-13.1
	c2.9-5.8,2.9-9.7,1.3-12.1c-1.5-2.2-4.3-3.1-7.4-2.8C60.8,3.4,57.4,5,55,7.8c-3.3,3.8-4.5,10-0.6,18.2C55.2,27.7,56,29.5,56.7,31.2
	L56.7,31.2z M59.1,49.5L59.1,49.5c-0.3-2.5-0.9-5-1.7-7.6c-1.2,0.7-2.5,1.5-3.7,2.2C42.2,50.8,31,57.3,28.3,66.6
	c-0.8,2.7-0.6,5.1,0.2,7c0.8,1.8,2.1,3.2,3.8,4.1c1.8,1,3.9,1.5,6.2,1.5c3.5,0,7.2-1.2,10.4-3.9c3.5-2.9,6.4-7.1,8.2-11.8
	C59,59.1,59.7,54.2,59.1,49.5L59.1,49.5z"/>
<g>
	<path class="st0" d="M141,6c0.1-0.1,0.2-0.4,0.2-0.6c0.1-0.3,0.2-0.7,0.5-0.9c0.3-0.3,0.8-0.2,1.2,0c0.3,0.1,0.7,0.4,0.8,0.7
		c0.1,0.4,0.1,1.2,0.1,1.6c0,0.5,0,1,0,1.5c0,0.4,0,0.8,0,1.2s-0.1,0.7-0.2,1c-0.1,0.5-0.4,0.9-0.7,1.2c-0.4,0.5-0.9,1.3-1.4,1.7
		c-0.4,0.3-0.9,0.4-1.4,0.4c-1.3-0.1-1.3-1-0.6-1.9c0.8-1,0.9-2.4,0.9-3.7c0-0.4-0.1-1.2-0.1-1.5C140.6,6.5,140.8,6.2,141,6L141,6
		L141,6L141,6L141,6z M129.4,24.4c0.2,0.2,0.4,0.5,0.7,0.6s0.7,0,1,0c0.6-0.1,1.4-0.1,2-0.3c0.5-0.1,1-0.4,1.5-0.7
		c0.4-0.3,0.9-0.5,1.3-0.7c2.1-0.9,4.1-2.1,6-3.3c1.7-1,3.4-2.2,5.2-3c0.4-0.2,0.8-0.4,1.2-0.6c0.9-0.5,4.5-2.5,5.4-2.7
		c0,0,0,0,0.1,0c-0.1,0.2-0.4,0.7-0.5,0.8c-0.3,0.4-0.6,0.8-0.8,1.2c-0.2,0.2-0.5,0.5-0.7,0.7c-0.4,0.4-0.8,0.8-1.1,1.2
		c-0.3,0.3-0.6,0.8-0.2,1.2c0.4,1.2,1.6,0.3,2.1-0.3l1.7-1.7c0.8-0.8,1.8-1.8,2.5-2.7c0.3-0.5,0.6-1,0.7-1.6c0.1-1-0.2-1.8-1.1-2.3
		c-0.7-0.4-1.4-0.5-2.2-0.4c-0.7,0.1-1.4,0.4-2.1,0.7c-0.6,0.3-1.1,0.6-1.6,1s-1.4,0.9-2,1.2c-1.6,0.9-3.2,1.9-4.9,2.8
		c-0.9,0.5-1.8,1.1-2.7,1.6c-0.7,0.4-1.5,0.9-2.3,1.3c-0.6,0.3-1.3,0.6-1.9,1c-1.1,0.5-2.2,1-3.3,1.5c-0.1,0-0.5,0.2-0.7,0.3
		c0-0.3,0.3-0.9,0.3-1.1c0.2-0.5,0.3-1,0.4-1.5c0.1-0.5,0.3-1,0.5-1.5c0.2-0.4,0.4-0.7,0.8-1c0.6-0.5,1.1-1.3,0.8-2.1s-1.1-1-1.9-1
		c-0.3,0-0.7,0-1,0.1s-0.6,0.4-0.9,0.6c-0.7,0.6-1,1.6-1.2,2.5c-0.5,1.6-1,3.2-1.5,4.9c-0.2,0.6-0.4,1.4-0.4,2
		C128.8,23.7,129,24.1,129.4,24.4L129.4,24.4L129.4,24.4z M148.6,38.7c0.3,0.4,0.5,0.9,0.6,1.4c0.1,0.4,0.1,0.8,0.2,1.2
		c0.2,0.7,0.3,1.4,0.3,2.2c0,0.7,0,1.3-0.1,2s-0.2,1.3-0.4,2c-0.2,0.6-0.3,1.2-0.6,1.8s-0.4,1.2-0.7,1.8c-0.2,0.5-0.4,1-0.6,1.6
		c0,0.6-0.7,1.4-1,1.8c-0.2,0.2-0.9,1-0.9,1.3v0.1h-0.1c-0.3,0.4-0.9,0.7-1.3,0.9c-0.3,0.1-0.8,0.4-1.1,0.6l0,0l0,0
		c-1.8,1.1-3.5,1-5-0.4l0,0l0,0c-0.2-0.2-0.3-0.3-0.6-0.2s-0.5,0.3-0.7,0.5c-0.2,0.3-0.5,0.7-0.7,1s-0.5,0.7-0.8,0.9l0,0l0,0
		c-0.1,0.1-0.4,0.3-0.5,0.3c-0.2,0.2-0.5,0.4-0.8,0.6c-0.3,0.2-0.5,0.4-0.8,0.5c-0.3,0.2-0.7,0.2-1.1,0.2c-0.4-0.1-0.7-0.3-0.9-0.6
		c-0.8-0.6-0.3-2,0-2.7l0,0l0,0c0.1-0.2,0.3-0.5,0.5-0.5c0.2-0.1,0.6-0.1,0.8-0.1l0,0c0.1,0,0.4,0,0.5,0c0.3-0.2,0.7-0.7,0.9-0.9
		c2.6-3.2,5.8-7.6,7-11.6c0.6-1.7,1.4-3.3,2.6-4.7c0.1-0.1,0.5-0.7,0.6-0.9c-0.1-0.2-0.5-0.3-0.7-0.3c-0.3-0.1-0.7-0.2-1.1-0.1
		c-0.3,0.1-0.7,0.3-0.9,0.6c-0.3,0.3-0.6,0.7-0.7,1.1c-0.4,1.2-1.4,2.8-2,4c-0.4,0.7-1,1.4-1.6,2c-0.4,0.4-1.1,1.1-1.7,1.2
		c-0.7,0.1-1.4-0.1-1.5-0.9c-0.1-0.7,0.3-1.2,0.8-1.7c1.1-1.5,2.5-3.7,2.9-5.5c0,0,0-0.1,0-0.2c-0.3,0-0.7,0.1-0.9,0.1
		c-0.6,0.2-1.3,0-1.8-0.4c-0.4-0.4-0.7-0.9-0.7-1.5c0-0.4,0.4-0.9,0.7-1.2c0.4-0.4,0.8-0.8,1.2-1c0.8-0.5,2-1.8,2.6-2.5
		c1-1.1,2-2.3,2.9-3.5l0,0l0,0c0.1-0.1,0.2-0.2,0.3-0.3c-0.2,0-0.5,0.1-0.6,0.2c-0.8,0.3-1.7,0.5-2.5,0.1c-0.4-0.1-0.6-0.4-0.7-0.8
		c-0.1-0.3,0-0.7,0.1-1c0.1-0.2,0.2-0.5,0.3-0.7v-0.1h0.1c0.4-0.2,0.9-0.4,1.3-0.6c0.7-0.2,1.3-0.5,2-0.7c0.4-0.1,1-0.3,1.4-0.4
		c0.9-0.4,2-0.7,3-0.3c1,0.3,1.4,1.1,1.4,2.1l0,0l0,0c-0.2,1-3.5,4.5-4.2,5.2c-0.2,0.2-0.9,1-1,1.2c0,0.1,0.2,0.3,0.3,0.4
		c0.3,0.3,0.6,0.7,0.8,1.1c0.2,0.4,0.4,0.6,0.8,0.8c0.7,0.2,1.4,0.6,2,1c0.4,0.3,1,0.8,1.2,1.3C148.2,37.9,148.4,38.3,148.6,38.7
		L148.6,38.7L148.6,38.7z M177.2,39c0.6-0.7,1.4-0.6,2.1,0c0.7,0.5,1.1,1.2,0.9,2.1c-0.1,0.7-0.4,1.5-1,1.8s-1.6,0-2.2-0.2
		c-1.2-0.3-3.3-0.4-4.5-0.5c-0.9-0.1-3.5-0.3-4.3,0l0,0l0,0c-1.2,0.1-2.3,0.2-3.5,0.3c-1.4,0.1-2.9,0.2-4.4,0.3
		c-1.3,0.1-2.6,0-3.8,0c-1.1-0.1-2.3-0.2-3.4-0.6c-0.7-0.4-1.2-0.9-1.5-1.7s-0.1-1.5,0.3-2.1c0.4-0.7,0.8-1.3,1.2-2
		c0.3-0.4,0.6-0.7,0.9-1c0.3-0.3,0.5-0.6,0.8-0.9c0.4-0.7,1-1.5,1.5-2.1c0.4-0.5,1.1-1.4,1.4-1.9c0.5-1.1,1.4-1.5,2.5-1
		c2.5,1-0.3,3.8-1.2,4.8c-0.4,0.4-0.7,0.9-1,1.3c-0.3,0.5-0.7,1.1-1.1,1.5c-0.4,0.5-0.8,1-0.9,1.6c0,0.1-0.2,0.7,0,0.7
		c0.5,0.2,2.6,0.1,3.1,0.1c3.6-0.2,7.2-0.4,10.9-0.5c1.9,0,4.2-0.1,6.1,0.2C176.4,39.1,176.9,39.2,177.2,39L177.2,39L177.2,39z
		 M222.6,12.5c-0.3,0.1-0.6-0.1-0.8-0.4c-0.1-0.2-0.1-0.5-0.1-0.7c0-0.1,0-0.1,0-0.2l0,0c-0.8,0.2-2.3,0.1-3.2,0.1
		c-1,0-2.5,0-3.5-0.2c-0.7-0.2-1.3-0.7-1.8-1.2c-1.2-1.1-1.4-2.3,0.6-2.5c0.9-0.1,1.8,0,2.6,0.3c2.1,0.6,4.7,0.3,6.8-0.1l0,0l0,0
		c0.3,0,1.1-0.1,1.4,0c0.3,0.1,0.6,0.3,0.7,0.6c0.4,0.4,0.6,0.9,0.4,1.4c-0.2,0.6-0.9,1.3-1.3,1.7C224.1,11.6,223.2,12.4,222.6,12.5
		L222.6,12.5L222.6,12.5z M211.9,26.1c0.3-0.4,1.2-1,1.7-1.2c0.8-0.5,1.7-0.9,2.6-1.1c3.5-1.3,7.2-2.7,10.4-4.5
		c0.3-0.2,0.6-0.4,0.9-0.5c0.4-0.2,0.7-0.4,1.1-0.6c0.4-0.2,0.8-0.4,1.1-0.6c0.4-0.2,0.8-0.5,1.2-0.7s0.7-0.5,1.1-0.7
		c0.4-0.2,0.7-0.5,1-0.8c0.3-0.2,0.5-0.4,0.8-0.7c0.2-0.2,0.5-0.4,0.7-0.7c0.2-0.2,0.3-0.4,0.4-0.6v-0.1v-0.1c0-0.6-0.3-1-0.9-1.1
		c-0.6-0.1-1.3,0.1-1.8,0.3c-0.5,0.3-1,0.6-1.4,0.9c-0.4,0.3-0.9,0.6-1.4,0.8c-1.1,0.6-2.1,1.2-3.1,1.9c-1.1,0.7-2.3,1.4-3.5,1.9
		c-1.3,0.6-2.6,1.1-3.9,1.5c-0.8,0.3-1.5,0.6-2.2,0.9c-0.9,0.4-1.9,0.8-2.9,1c-0.8,0.3-1.7,0.4-2.5,0.6c-0.5,0.1-1.6,0.3-2,0.6
		c-0.4,0.3-0.4,1.2-0.5,1.6c-0.3,2-2.3,18.3-3.3,19.6l-0.1,0.1v0.1c-0.4,1.8-1.3,6.2-2.6,7.6c-0.3,0.3-0.6,0.9-0.8,1.4
		c-0.2,0.4-0.4,1-0.7,1.3c-0.4,0.7-0.9,1.5-0.5,2.3c0.3,0.6,0.8,1,1.5,1.2h0.1h0.1c0.6,0,1.1-0.5,1.5-0.9c0.6-0.6,1-1.3,1.4-2.1
		c0.6-1.1,1.1-2.2,1.6-3.3c0.4-0.9,0.7-2,0.9-3c0.3-1.1,1-3.6,1-4.7c0-0.2,0-0.5,0.2-0.7l0,0l0,0c1.1-2.7,1.5-6.5,1.8-9.4
		C210.7,32.2,211.2,27.4,211.9,26.1L211.9,26.1L211.9,26.1z M237.8,37.8c0.2-0.4,0.3-5.8,0.3-6.2c0-0.4,0-2-0.1-2.6
		c-0.6-0.1-1.6,0.3-2.1,0.5c-1,0.4-2.1,0.8-3.1,1.1c-1,0.4-2.1,0.3-3.1,0l0,0l0,0c-1.5-0.8-1-1.8,0.2-2.5c0.9-0.5,1.9-0.9,2.9-1.1
		c0.6-0.1,1.2-0.3,1.7-0.6c0.6-0.3,1.2-0.5,1.8-0.7c0.3-0.1,1-0.3,1.2-0.5c0.2-0.3,0.2-1.1,0.2-1.4c-0.1-0.7,0-1.4,0.4-2
		c0.4-0.8,1.1-1,1.9-0.8c0.9,0.2,1.4,0.9,1.2,1.8c0,0.5,0.2,0.5,0.6,0.3c1-0.4,2.7-1.1,3.7-1.1c0.5,0,1,0.1,1.2,0.6
		c0.3,0.4,0.2,1,0.1,1.4c0,0.2-0.1,0.5-0.2,0.6c-0.2,0.2-0.4,0.4-0.7,0.5c-0.2,0.1-0.4,0.2-0.6,0.3c-0.2,0.1-0.6,0.2-0.8,0.3
		c-0.1,0-0.5,0.2-0.6,0.2c-0.5,0.1-1,0.4-1.5,0.6c-0.3,0.1-0.8,0.5-0.9,0.7c-0.2,0.4-0.1,3.1-0.1,3.5c0,0.5-0.2,6.5,0,7.1
		 M241.6,37.9L241.6,37.9c-0.2,0.3-0.4,2.2-0.4,2.6c-0.2,2.6-0.3,5.2-0.5,7.8l-0.1,2.7l-0.8,0.8c-0.3,0.3-0.9,0.8-1.4,0.7
		c-0.4,0-1.1-0.5-1.4-0.7c-0.2-0.1-0.4-0.2-0.7-0.4c-0.2-0.1-0.5-0.3-0.7-0.4c-0.2-0.1-0.4-0.3-0.6-0.4c-0.2-0.1-0.4-0.3-0.6-0.5
		c-0.2-0.1-0.4-0.3-0.5-0.5c-0.2-0.2-0.4-0.4-0.6-0.6c-0.2-0.2-0.3-0.5-0.4-0.7c-0.2-0.3-0.3-0.5-0.4-0.8c-0.4-0.7-0.9-2,0-2.5
		c0.4-0.2,0.8-0.2,1.1,0.2c0.4,0.4,0.7,0.9,1,1.4c0.5,0.9,1.4,1.4,2.4,1.6c0.4-1.8,0.5-3.9,0.7-5.7c0.1-1.1,0.3-3.6,0.1-4.8
		 M217.4,36.5c-0.1,0.1-0.2,0.2-0.4,0.4c-0.3,0.3-0.5,0.5-0.8,0.7c-0.5,0.5-1.6,1.5-2.3,1.5s-1.3-0.3-1.4-1
		c-0.2-0.7,0.1-1.4,0.6-1.9c0.1-0.2,0.5-0.7,0.8-0.8c0.7-0.5,1.4-1.5,1.9-2.3c0.7-1.1,1.4-2.2,2.2-3.2c0.6-0.9,1.5-1.7,2.5-2.1l0,0
		l0,0c0.4,0,1.1-0.1,1.4,0c0.4,0.1,0.6,0.7,0.7,1.1c0.2,0.6-0.5,1.4-0.9,1.9c-0.1,0.2-0.3,0.5-0.5,0.7c-0.1,0.1-0.3,0.3-0.4,0.3l0,0
		c0.1,0.1,0.2,0.3,0.3,0.4c0.3,0.4,0.4,0.8,0.4,1.3c-0.2,1.4-1.1,7-0.8,8.4c0.4,0.9,0.4,2.1,0.2,3c-0.1,0.9-0.5,2.1-1.6,2.2
		c-0.4,0.1-0.8,0.1-1.1,0c-0.3-0.2-0.5-0.5-0.7-0.8c-0.3-0.6-0.3-2.3-0.4-3c-0.1-1.7,0-3.3,0.1-5C217.3,37.7,217.4,37.1,217.4,36.5
		C217.4,36.6,217.4,36.6,217.4,36.5L217.4,36.5L217.4,36.5z M290.4,14.8c2.6-0.5,5.4-1.5,7.9-2.5c1.9-0.8,3.7-1.5,5.5-2.3l0,0l0,0
		c0.8-0.2,1.7-0.7,2.5-1.1c0.6-0.4,1.5-0.9,2.2-0.9s1,0.4,1.2,1c0.1,0.2,0.2,0.4,0.2,0.7s-0.2,0.6-0.4,0.9c-0.2,0.2-0.4,0.4-0.6,0.7
		c-0.2,0.2-0.6,0.5-0.9,0.6c-0.3,0.2-0.6,0.4-0.9,0.6c-0.3,0.2-0.6,0.4-0.9,0.6c-0.2,0.1-0.5,0.3-0.7,0.4c-0.6,0.4-1.7,1.2-2.4,0.5
		c-0.2-0.1-0.5,0-0.7,0.1l0,0l0,0c-1.9,0.6-3.9,1.4-5.8,2.2c-2.1,0.9-4.4,1.8-6.6,2.3c-1,0.2-2,0.1-1.9-1.2c0-1,0.5-1.8,1.4-2.3
		C289.8,14.8,290.1,14.7,290.4,14.8L290.4,14.8L290.4,14.8z M276.7,56c1-0.4,2.4-2.1,3.1-2.9c0.5-0.6,2-2.3,2-3.2
		c0.1-0.2,0-0.4-0.2-0.6c-0.1-0.1-0.3-0.2-0.5-0.2c0.2-0.5,0.7-1.5,0.9-1.8c0.3-0.6,0.9-1.9,1.3-2.4l0,0l0,0c1.2-2.4,2.1-5.3,3-7.8
		c1.2-3.4,2.5-6.7,4-10c1.1-2.4,2.6-4.8,4.7-6.4c0.8-0.3,1.2-0.9,0.8-1.8c-0.3-0.7-0.9-1-1.6-0.5c-0.8,0-1.7,0.2-2.3,0.6
		c-0.7,0.5-1.4,1.6-1.8,2.4c-0.2,0.3-0.6,1.2-0.8,1.4l0,0v0.1c-1.2,1.9-2.1,3.9-3,5.9c-1.1,2.6-2.1,5.2-3,7.9
		c-0.8,2.1-1.5,4.3-2.4,6.4c-0.6,0.8-2.6,4.8-2.9,5.2c-0.7,1.3-1.4,2.7-2.1,4c-0.2,0.4-0.7,1.3-1.1,1.7l-0.1,0.1v0.1
		c-0.2,0.6-0.1,1.2,0.3,1.8C275.4,56.4,276,56.4,276.7,56L276.7,56L276.7,56z M298.7,36.1c0.2-0.8,0.3-1.6,0.5-2.4
		c0.1-1,0.3-1.9,0.4-2.9c0.1-0.8,0.1-1.7-0.1-2.5c0-0.2-0.2-0.8-0.5-0.8c-0.4,0-0.8-0.3-1-0.6c-0.3-0.4-0.4-0.8-0.4-1.2l0,0
		c0.1-0.6,0.9-1.5,1.3-2c0.3-0.3,1.1-1.1,1.3-1.4c0.4-0.8,1.4-1.4,2.1-1.8c0.8-0.4,1.8-0.9,2.7-0.9c1-0.1,1.9,0.2,1.8,1.3
		c-0.1,0.9-0.7,1.4-1.5,1.7c-0.1,0-0.2,0.1-0.4,0.1c-0.5,0.1-1,0.5-1.3,0.9l0,0l-0.8,0.6l0.1,1.1c0,0.1,0,0.4,0.1,0.7
		c0.1-0.1,0.1-0.2,0.2-0.3c0.8-1.2,1.8-1.9,3.2-2.1c1.3-0.2,2.4,0.3,3.2,1.4c0.7,0.9,0.7,2.3,0.6,3.4s-0.3,2.4-0.9,3.3v0.1l0,0V32
		c0,0.2,0.1,0.3,0.3,0.5c0.4,0.3,0.6,0.6,0.6,1.1s-0.4,1.2-0.6,1.6c-0.8,1.6-1.3,3.4-1.6,5.1c-0.2,1.1-0.3,2.5-0.4,3.6
		c-0.2,2.5-0.4,4.9-0.5,7.4c0,1-0.1,2.6-0.3,3.5c-0.1,0.6-0.6,1.2-1.1,1.7c-0.9,0.8-1.9,0.7-2.9,0.2c-1-0.6-1.7-1.4-2.1-2.5
		c-0.3-1-0.2-2,0.5-2.8v-0.1h0.1c0.5-0.2,0.9,0.1,1.2,0.5c0.3,0.3,0.5,0.8,0.6,1.2c0,0.1,0.1,0.4,0.2,0.4c0.2,0,0.3,0,0.3-0.2
		c0.1-0.4,0-0.8,0-1.2c-0.1-0.5,0-1,0.1-1.5c0.2-1.3,0.3-3.1,0.4-4.5c0.1-1.5,0.2-3,0.3-4.5c0-0.3,0.3-1.7,0.2-2.3
		c-0.2,0.2-0.6,0.4-0.7,0.5c-0.3,0.2-1,0.8-1.4,0.7c-0.3,0-0.9-0.5-1.2-0.6c-0.1-0.1-0.6-0.4-0.8-0.5l0,0l0,0
		c-0.7,0-1.2-0.6-1.5-1.2C298.5,37.5,298.4,36.8,298.7,36.1L298.7,36.1L298.7,36.1z M295.8,52.8c-0.1,0.3-0.3,0.5-0.4,0.8
		c-0.2,0.5-0.6,1-1,1.3c-0.9,1-2.2,2-3.5,1c-1.7-1.4,1.9-5.1,2.8-6l0,0l0,0c1-0.8,2.2-2.5,2.9-3.6c0.5-0.7,2.1-2.9,2.8-3.4
		c1.1-0.6,2.1-0.3,2.9,0.7l0,0l0,0c0.2,0.3,0.3,0.7,0.1,1.1c-0.2,0.4-0.9,0.9-1.2,1.1l0,0l0,0c-0.6,0.4-2.4,2.9-2.8,3.5
		C298.1,49.9,296.4,52.3,295.8,52.8L295.8,52.8L295.8,52.8z M319.6,49c-0.3-0.3-0.5-0.5-0.7-0.7c-0.9-0.9-1.7-1.8-2.5-2.6
		c-0.3-0.3-0.6-0.7-0.9-1c-0.2-0.2-0.5-0.5-0.3-0.7c0.2-0.7,0.9-1,1.5-1c0.8,0,1.5,0.2,2.1,0.6c0.8,0.5,1.7,1.3,2.4,1.9
		c1.3,1.2,2.5,2.4,3.8,3.6c0.9,0.8,1.7,1.7,2.6,2.5c0.6,0.6,1.2,1.3,1.4,2.1l0.5,1.5H329c-0.1,0.1-0.3,0.2-0.4,0.3
		c-0.2,0.2-0.5,0.5-0.9,0.6c-0.3,0.1-0.7,0-1-0.1c-0.4-0.1-1.1-0.2-1.4-0.4c-0.4-0.2-0.7-0.8-0.9-1.2c-0.5-1-1.2-1.9-2-2.7
		c-0.6-0.7-1.5-1.6-2.4-1.9l-1.4-0.7L319.6,49L319.6,49z M366.1,29.2c-0.5,0.2-1.5,0.7-1.8,0.9l-2.1,1l-2.1-0.1
		c-0.9,0-2.5,0-3.1-0.8c-0.5-0.8-0.2-2.5,0-3.3s0.4-1.8,0.3-2.6c-0.3-0.8-0.1-1.5,0.7-2c0.6-0.4,1.3-0.6,1.9-0.2l0,0l0,0
		c0.9,0.8,0.6,3,0.5,4.1c0,0.2-0.2,1.1-0.2,1.6c1.7-0.1,4.5-2,5.7-2.8l0.5-0.4l0.2-3.8c0.1-2,0.3-4.3,0.8-6.2c0.1-0.6,0.5-1.1,1-1.5
		c0.6-0.5,1.3-0.3,1.8,0.2c0.3,0.2,0.6,0.5,0.6,0.9s-0.3,1.5-0.4,2c-0.3,0.8-0.3,2.4-0.4,3.2c0,0.3-0.1,1.8,0,2.3
		c0.3-0.1,0.8-0.6,1-0.8c0.3-0.3,1.1-1.1,1.2-1.5l0,0l0,0c0.2-0.8,0.8-1.3,1.6-1.3c0.8,0,1.5,0.4,2,1l0,0l0,0c0.3,0.4,0.6,1,0.3,1.5
		s-1.6,1.6-2.1,2c-0.1,0.1-0.3,0.3-0.4,0.4c-0.5,0.4-1,0.8-1.6,1.2c-0.4,0.3-1,0.7-1.3,1.1c-0.3,0.3-0.6,0.7-0.8,1.1
		c-0.3,0.5-0.5,1.1-0.6,1.8c-0.1,0.9-0.1,1.9-0.1,2.9c0,1.1,0,2.4-0.1,3.6c0,0.1-0.1,0.4,0,0.5c0.3,0,1.1-0.4,1.3-0.5
		c0.7-0.3,1.4-0.6,2-1c0.4-0.3,0.9-0.5,1.4-0.5s1,0.1,1.3,0.5c0.5,0.5,0.5,1.2,0.1,1.8s-1,1-1.7,1.2c-0.9,0.3-1.9,0.8-2.7,1.2
		c-0.8,0.4-1.6,0.9-2.3,1.4c-0.1,0.7-0.2,1.7-0.2,2.5c-0.1,1.2-0.2,2.5-0.2,3.7v0.8c0.5,0,1,0,1.5-0.1c1-0.5,3.8-0.8,4.9-0.9
		c1.6-0.2,3.4-0.3,4.9-0.6c0.5-0.2,1.4-0.3,2-0.3c1.4-0.2,2.9-0.3,4.3-0.4c0.7-0.1,5.3-0.4,5.9-0.8l0,0l0,0c0.8-0.3,1.6-0.4,2.5-0.1
		c1,0.4,1.1,1.2,0.8,2.1c-0.2,0.6-0.5,1.2-1.1,1.5c-0.7,0.3-2.3,0.5-3.1,0.6c-0.4,0.1-1,0.1-1.4,0.2c-1.1,0.1-2.2,0.2-3.2,0.2
		c-1.7,0.1-3.7,0.2-5.4,0.4c-1.4,0.2-2.7,0.4-4.1,0.5c-1.5,0.2-3.1,0.4-4.6,0.7c-1.3,0.2-2.5,0.6-3.7,1c-0.5,0.2-1,1-1.2,1.4l0,0
		l0,0c-0.3,0.3-0.7,0.4-1.1,0.4c-0.5-0.1-0.9-0.4-1.2-0.7l0,0l0,0c-0.1-0.2-0.3-0.4-0.6-0.4c-0.4,0-0.9,0-1.3,0.1s-0.9,0.2-1.3,0.1
		c-1.6,0.2-3.2,0.4-4.7,0.7c-0.6,0.1-2.1,0.4-2.6,0.1l0,0l0,0c-0.4-0.3-0.5-1-0.5-1.4c0-0.5-0.1-1.1,0.2-1.5
		c0.3-0.4,0.8-0.6,1.2-0.7c0.6-0.1,1.3-0.2,1.9-0.2c0.5,0,1.1-0.1,1.6-0.2c1-0.2,2.3-0.3,3.4-0.4c0.5,0,1.9,0,2.4-0.3
		c0.3-0.2,0.3-0.5,0.3-0.9c-0.1-0.7,0-1.5,0.2-2.1c0.3-0.8,0.4-1.8,0.5-2.7l0.1-1.3c-0.2,0-0.3,0.1-0.4,0.1
		c-0.4,0.1-0.9,0.2-1.3,0.3c-0.5,0.1-0.9,0.2-1.4,0.2c-0.4,0.1-0.9,0.1-1.3,0c-0.3,0-0.6-0.1-0.9-0.3s-0.3-0.6-0.1-0.9
		c0.2-0.2,0.4-0.5,0.6-0.7c0,0,0.1-0.1,0.2-0.2c0-0.3,0.2-0.5,0.5-0.7s0.7-0.3,1-0.5c0.4-0.2,0.9-0.3,1.3-0.5s0.9-0.3,1.3-0.4
		c0.2-0.1,0.5-0.2,0.7-0.2c0.2-0.7,0.3-3.3,0.4-3.8C365.9,32.2,366.1,29.9,366.1,29.2L366.1,29.2L366.1,29.2z M144,52.2
		c0.1-0.3,0.3-0.6,0.4-0.9c0.2-0.4,0.4-0.9,0.5-1.3c0.2-0.5,0.4-0.9,0.5-1.4c0.2-0.5,0.4-1.1,0.5-1.6s0.2-1.1,0.3-1.6
		s0.1-1.1,0.1-1.6s-0.1-1-0.2-1.5l-0.1-0.2c-0.1,0.2-0.3,0.6-0.4,0.7c-0.3,0.6-0.7,1.2-1,1.8c-0.4,0.6-0.7,1.2-1,1.9s-0.6,1.3-1,2
		c-0.3,0.5-0.7,1.2-0.9,1.8c-0.1,0.5-0.5,1-0.9,1.3c-0.2,0.2-0.4,0.5-0.6,0.8c-0.1,0.3-0.3,0.6-0.4,0.9l0,0l0,0
		c-0.2,0.3-0.9,1-0.7,1.4c0.1,0.3,0.5,0.4,0.9,0.3c0.6,0,1.1-0.2,1.6-0.4c0.4-0.2,0.9-0.7,1.2-1C143.2,53.1,143.6,52.7,144,52.2
		L144,52.2L144,52.2z M304.3,29c0.7-0.2,1.3-0.5,1.9-0.9c0.2-0.1,0.8-0.6,0.8-0.9l0,0l0,0c0,0-0.2-0.1-0.3-0.1c-0.4,0-1,0.3-1.3,0.6
		C304.9,28.1,304.5,28.5,304.3,29L304.3,29z M302.2,37.1c0.3-0.2,1-0.8,1.2-1s0.7-0.7,0.9-0.9v-0.1c-0.6-0.8-0.1-1.7,0.6-2.2
		c0.1-0.1,0.5-0.4,0.7-0.7c-0.6,0.3-1.4,1-1.6,1.1c-0.4,0.3-0.8,0.5-1.2,0.8c-0.1,0.1-0.3,0.2-0.4,0.4c-0.1,0.3-0.2,1.2-0.2,1.5
		c0,0.1,0,0.3,0,0.5l0,0C302.2,36.4,302.2,36.9,302.2,37.1L302.2,37.1z"/>
	<path class="st0" d="M232.6,41c-0.1-0.2-0.1-0.3,0-0.5c0.1-0.1,0.2-0.2,0.3-0.2h0.1l0,0c-0.3-0.4-0.6-1.2-0.8-1.6
		c-0.2-0.5-0.6-1.3-0.7-1.8c-0.1-0.4,0-0.8,0.2-1.2c0.3-0.9,0.9-1.3,1.4-0.3c0.2,0.4,0.4,0.9,0.5,1.4c0.2,1.2,1,2.5,1.6,3.5l0,0l0,0
		c0.1,0.2,0.3,0.5,0.3,0.7s0,0.4-0.1,0.5c-0.1,0.3-0.3,0.5-0.6,0.6c-0.3,0-0.9-0.2-1.2-0.3C233.4,41.5,232.8,41.3,232.6,41L232.6,41
		L232.6,41z"/>
</g>
<path d="M186.9,77.6c0.1-0.6,0.4-1.3,0.6-2c0.2-0.7,0.5-1.4,0.8-2.1s0.5-1.4,0.8-2.2c0.3-0.7,0.5-1.5,0.7-2.2
	c0.1-0.2,0.1-0.3,0.1-0.5s0.1-0.3,0.1-0.5c0.1-0.2,0.2-0.3,0.3-0.4s0.3-0.2,0.5-0.2c0.1,0,0.3,0,0.4,0.1c0.1,0.1,0.2,0.1,0.4,0.2
	c0.1,0.1,0.2,0.2,0.2,0.4s0.1,0.4,0.1,0.6s0,0.5-0.1,0.8c-0.3,0.7-0.5,1.4-0.8,2c-0.3,0.7-0.5,1.3-0.8,1.9s-0.5,1.3-0.7,1.9
	s-0.4,1.2-0.6,1.8c0,0.1,0,0.2-0.1,0.3c0,0.2-0.1,0.4-0.1,0.6s-0.1,0.5-0.1,0.7c0,0.3-0.1,0.5-0.1,0.8c0,0.2,0,0.3,0,0.5
	s0.1,0.3,0.1,0.4s0.1,0.2,0.2,0.3c0.1,0.1,0.2,0.1,0.3,0.1c0.3,0,0.6-0.1,1-0.4s0.8-0.6,1.2-1.1s0.9-1,1.4-1.7
	c0.5-0.6,0.9-1.3,1.4-2c0.4-0.7,0.9-1.5,1.2-2.2s0.7-1.5,1-2.2c0.1-0.1,0.1-0.2,0.2-0.2s0.2-0.1,0.4-0.1c0.3,0,0.5,0.1,0.7,0.2
	c0.2,0.2,0.3,0.4,0.3,0.6c0,0.1,0,0.1,0,0.2s0,0.1-0.1,0.2l-0.1,0.4c-0.1,0.3-0.2,0.6-0.3,0.9s-0.2,0.5-0.2,0.8
	c-0.1,0.3-0.2,0.7-0.2,0.9c-0.1,0.3-0.1,0.6-0.1,0.8s-0.1,0.5-0.1,0.7s0,0.5,0,0.7c0,0.1,0,0.2,0,0.4c0,0.2,0,0.4,0.1,0.6
	s0.1,0.4,0.1,0.7c0.1,0.2,0.1,0.4,0.2,0.6c0.1,0.2,0.2,0.3,0.3,0.5s0.2,0.2,0.4,0.2s0.4-0.1,0.7-0.3c0.2-0.2,0.5-0.4,0.7-0.7
	s0.5-0.7,0.7-1.1s0.5-0.9,0.7-1.3c0.2-0.5,0.5-1,0.7-1.5s0.4-1,0.6-1.5c0.2-0.5,0.3-1,0.5-1.4c0.1-0.5,0.2-0.9,0.3-1.3
	s0.1-0.7,0.2-1.1s0.1-0.7,0.2-1s0.1-0.7,0.2-1s0.1-0.7,0.2-1.1c0-0.1,0.1-0.3,0.2-0.4c0.1-0.1,0.1-0.3,0.2-0.4
	c0.1-0.1,0.2-0.2,0.3-0.3s0.2-0.1,0.4-0.1c0.3,0,0.5,0.1,0.6,0.2s0.2,0.4,0.2,0.8c0,0.3,0,0.6-0.1,1s-0.1,0.8-0.2,1.2
	s-0.2,0.9-0.3,1.3s-0.2,0.8-0.3,1.2c-0.2,0.8-0.4,1.6-0.8,2.5s-0.7,1.7-1.1,2.5c-0.4,0.8-0.8,1.6-1.2,2.3s-0.9,1.3-1.3,1.8
	c-0.1,0.2-0.3,0.4-0.5,0.6s-0.4,0.4-0.7,0.5s-0.5,0.3-0.7,0.4s-0.5,0.2-0.7,0.2c-0.5,0-0.9-0.1-1.2-0.4s-0.6-0.7-0.8-1.1
	c-0.2-0.5-0.4-1-0.5-1.6s-0.2-1.2-0.2-1.8c-0.4,0.6-0.7,1.1-1.1,1.5c-0.3,0.4-0.6,0.9-1,1.2c-0.2,0.3-0.5,0.6-0.8,0.9
	s-0.6,0.6-1,0.9s-0.7,0.5-1.1,0.7s-0.7,0.3-1.1,0.3c-0.4,0-0.8-0.1-1-0.2s-0.5-0.3-0.7-0.6s-0.3-0.5-0.4-0.9s-0.1-0.7-0.1-1.1
	c0-0.5,0-0.9,0.1-1.4C186.7,78.6,186.8,78.1,186.9,77.6L186.9,77.6z"/>
<path d="M205.9,78.3c0.1-0.4,0.3-0.9,0.5-1.3s0.5-0.9,0.9-1.4s0.8-1,1.3-1.4c0.5-0.5,1.1-0.9,1.7-1.3c0.1-0.1,0.3-0.1,0.5-0.2
	s0.4-0.1,0.7-0.1c0.3-0.3,0.6-0.4,1.1-0.4s1,0.1,1.4,0.4s0.7,0.6,0.9,1.1c0.1,0.2,0.1,0.3,0.2,0.4c0.1,0.2,0.1,0.3,0.2,0.5
	c0,0.2,0.1,0.3,0.1,0.5s0,0.4,0,0.6c0,0.6-0.1,1.1-0.3,1.7s-0.4,1.1-0.7,1.7s-0.7,1.1-1.2,1.6c-0.4,0.5-1,0.9-1.5,1.3
	c-0.4,0.3-0.8,0.5-1.2,0.6c-0.4,0.2-1,0.2-1.5,0.2s-1-0.1-1.4-0.2s-0.7-0.3-1-0.6c-0.3-0.3-0.4-0.6-0.6-0.9s-0.2-0.8-0.2-1.2
	S205.8,78.8,205.9,78.3L205.9,78.3z M207.6,78.4c0,0.2-0.1,0.3-0.1,0.4s0,0.3,0,0.4c0,0.2,0,0.4,0.1,0.6s0.1,0.4,0.3,0.5
	c0.1,0.1,0.3,0.2,0.5,0.3c0.2,0.1,0.4,0.1,0.7,0.1c0.5,0,1-0.1,1.5-0.4s0.9-0.6,1.2-1s0.6-0.8,0.9-1.3s0.4-0.9,0.5-1.3
	c0.1-0.2,0.1-0.5,0.2-0.7c0-0.2,0.1-0.4,0.1-0.6s0-0.3-0.1-0.5s-0.1-0.3-0.2-0.5c-0.1-0.1-0.1-0.2-0.2-0.4c-0.1-0.1-0.1-0.2-0.2-0.4
	c-0.1,0.1-0.1,0.2-0.2,0.2c-0.1,0.1-0.2,0.1-0.3,0.2s-0.3,0.1-0.5,0.2s-0.5,0.1-0.8,0.1c-0.2,0.1-0.5,0.2-0.7,0.3s-0.5,0.3-0.7,0.6
	c-0.2,0.2-0.4,0.4-0.6,0.7s-0.4,0.5-0.6,0.8s-0.3,0.5-0.4,0.8S207.7,78.2,207.6,78.4L207.6,78.4z"/>
<path d="M224.4,73.7c-0.2,0-0.5,0.1-0.8,0.2s-0.6,0.3-0.9,0.5s-0.6,0.4-0.9,0.7s-0.6,0.5-0.9,0.8c-0.1,0.1-0.3,0.2-0.4,0.4
	s-0.3,0.2-0.4,0.2c-0.1,0.2-0.2,0.4-0.3,0.6s-0.2,0.5-0.3,0.8s-0.2,0.6-0.3,0.9s-0.2,0.6-0.2,0.9c0,0.1-0.1,0.3-0.1,0.4
	s-0.1,0.3-0.1,0.4c0,0.2-0.1,0.3-0.1,0.5s-0.1,0.4-0.1,0.6c0,0.1-0.1,0.2-0.2,0.3s-0.2,0.1-0.2,0.2s-0.2,0.1-0.2,0.1s-0.1,0-0.2,0
	c-0.3,0-0.5-0.1-0.6-0.2c-0.2-0.1-0.2-0.4-0.2-0.7c0-0.1,0-0.2,0-0.3s0-0.2,0.1-0.4c0.1-0.7,0.3-1.2,0.4-1.8c0.1-0.5,0.3-1,0.4-1.5
	c0.1-0.4,0.3-0.9,0.4-1.3c0.1-0.4,0.3-0.8,0.5-1.2c0.2-0.4,0.3-0.8,0.5-1.3s0.4-0.9,0.5-1.4c0-0.1,0.1-0.2,0.3-0.3
	c0.2-0.1,0.4-0.1,0.6-0.1c0.3,0,0.5,0.1,0.6,0.2s0.2,0.3,0.2,0.5v0.1c0,0,0,0.1-0.1,0.2l-0.5,1.1c0.3-0.2,0.6-0.5,0.9-0.7
	c0.3-0.2,0.6-0.4,1-0.6c0.3-0.2,0.7-0.3,1-0.4s0.7-0.2,1-0.2c0.7,0,1.2,0.2,1.6,0.5c0.4,0.4,0.6,0.9,0.6,1.7c0,0.4-0.1,0.9-0.2,1.5
	c-0.1,0.6-0.3,1.1-0.6,1.8c-0.2,0.6-0.5,1.3-0.7,2s-0.5,1.4-0.7,2.1c-0.1,0.2-0.1,0.4-0.2,0.5c-0.1,0.1-0.1,0.2-0.2,0.3
	s-0.2,0.1-0.3,0.2c-0.1,0-0.3,0.1-0.4,0.1c-0.3,0-0.5-0.1-0.6-0.2s-0.2-0.3-0.2-0.5s0-0.4,0.1-0.7s0.1-0.6,0.2-0.9
	c0.1-0.3,0.2-0.7,0.4-1.1c0.1-0.4,0.3-0.8,0.5-1.2c0.1-0.3,0.3-0.6,0.4-1s0.2-0.6,0.3-0.9s0.2-0.6,0.2-0.8s0.1-0.5,0.1-0.8
	c0-0.2-0.1-0.4-0.1-0.6C224.8,73.8,224.6,73.7,224.4,73.7L224.4,73.7z"/>
<path d="M228.7,78.7c0.1-0.4,0.2-0.8,0.4-1.1s0.3-0.7,0.6-1.1c0.2-0.4,0.5-0.7,0.8-1.1s0.7-0.7,1.1-1c0.3-0.2,0.6-0.4,0.9-0.6
	s0.6-0.4,0.9-0.5s0.6-0.3,1-0.3s0.6-0.1,0.9-0.1c0.2,0,0.4,0,0.6,0.1c0.2,0,0.3,0.1,0.5,0.2c0.1-0.2,0.2-0.9,0.6-1.9
	c0.3-1.1,0.7-2.5,1.1-4.4c0.1-0.2,0.2-0.3,0.3-0.5c0.1-0.1,0.3-0.2,0.5-0.2c0.1,0,0.3,0,0.4,0c0.1,0,0.2,0.1,0.4,0.2
	c0.1,0.1,0.2,0.2,0.2,0.3c0.1,0.1,0.1,0.3,0.1,0.5l-2.1,8.3c-0.1,0.2-0.1,0.6-0.2,0.9c-0.1,0.4-0.1,0.8-0.2,1.3s-0.1,0.9-0.1,1.3
	s0,0.8,0,1.1c0,0.4,0,0.8-0.1,1.2c0,0.2-0.1,0.3-0.1,0.4s-0.1,0.2-0.2,0.3c-0.1,0.1-0.2,0.1-0.3,0.2c-0.1,0-0.3,0.1-0.4,0.1
	c-0.2,0-0.4,0-0.5-0.1s-0.2-0.1-0.2-0.2s-0.1-0.2-0.1-0.2c0-0.1,0-0.2,0-0.3s0-0.2,0-0.3c0-0.1,0-0.2-0.1-0.3
	c-0.1,0.1-0.2,0.1-0.3,0.2s-0.3,0.2-0.4,0.3c-0.1,0.1-0.3,0.2-0.4,0.3s-0.2,0.1-0.3,0.2c-0.2,0.1-0.3,0.2-0.5,0.3s-0.4,0.2-0.6,0.3
	s-0.5,0.2-0.7,0.2c-0.2,0.1-0.5,0.1-0.8,0.1s-0.6-0.1-0.9-0.2s-0.6-0.3-0.8-0.5s-0.4-0.5-0.6-0.8c-0.1-0.3-0.2-0.7-0.2-1.2
	c0-0.2,0-0.3,0-0.5C228.6,79.1,228.6,78.9,228.7,78.7L228.7,78.7z M230.5,78.6c-0.1,0.2-0.1,0.4-0.1,0.6s0,0.4,0.1,0.6
	s0.1,0.3,0.2,0.5s0.2,0.2,0.4,0.3c0.2,0.1,0.4,0.1,0.6,0.1c0.1,0,0.3,0,0.4-0.1s0.3-0.1,0.5-0.2s0.3-0.2,0.4-0.2s0.2-0.2,0.4-0.2
	c0.3-0.2,0.5-0.3,0.7-0.5s0.4-0.3,0.6-0.5c0.2-0.2,0.3-0.4,0.5-0.7s0.2-0.5,0.3-0.8s0.1-0.5,0.2-0.8c0.1-0.2,0.1-0.4,0.1-0.7
	s0.1-0.4,0.1-0.7c0-0.2,0.1-0.5,0.1-0.8l-0.1-0.1c0,0-0.1-0.1-0.3-0.1c-0.3,0-0.6,0.1-0.9,0.1s-0.7,0.2-1,0.4s-0.7,0.4-1,0.6
	s-0.6,0.5-0.9,0.8c-0.3,0.3-0.5,0.7-0.8,1C230.7,77.8,230.6,78.2,230.5,78.6L230.5,78.6z"/>
<path d="M250.8,79.8c0.2,0.1,0.5,0.2,0.7,0.3s0.5,0.2,0.8,0.3s0.5,0.2,0.8,0.2c0.3,0.1,0.6,0.1,0.9,0.1c0.4,0,0.8,0,1.1-0.1
	s0.8-0.2,1.1-0.4c0.4-0.2,0.7-0.4,1.1-0.6c0.3-0.2,0.6-0.5,0.9-0.9c0.3-0.3,0.6-0.7,0.8-1s0.4-0.5,0.5-0.8c0.1-0.2,0.2-0.4,0.3-0.6
	c0.1-0.2,0.1-0.3,0.1-0.4c0-0.2-0.1-0.3-0.2-0.4s-0.3-0.2-0.5-0.3s-0.4-0.1-0.7-0.2s-0.5-0.1-0.8-0.1c-0.2,0-0.4,0-0.6,0
	s-0.4,0-0.6,0s-0.4,0-0.6,0c-0.2,0-0.4,0-0.5,0c-0.2,0-0.5,0-0.7-0.1s-0.5-0.1-0.7-0.2s-0.4-0.3-0.6-0.5c-0.2-0.2-0.4-0.4-0.5-0.8
	c0-0.1-0.1-0.2-0.1-0.3s-0.1-0.3-0.1-0.4c0-0.2,0-0.3,0-0.5s0.1-0.3,0.1-0.4c0.1-0.3,0.3-0.7,0.5-1.1s0.5-0.7,0.8-1s0.7-0.7,1-1
	s0.8-0.6,1.1-0.9c0.4-0.3,0.8-0.5,1.1-0.8c0.4-0.2,0.7-0.4,1-0.6c0.5-0.2,0.9-0.4,1.4-0.5s0.9-0.2,1.4-0.2c0.3,0,0.5,0,0.8,0.1
	s0.5,0.2,0.7,0.3s0.3,0.3,0.5,0.5c0.1,0.2,0.2,0.4,0.2,0.7c0,0.2,0,0.3,0,0.4s-0.1,0.2-0.1,0.2c0,0.1-0.1,0.1-0.2,0.1s-0.1,0-0.2,0
	c-0.2,0-0.4,0-0.5-0.1c-0.2,0-0.3-0.1-0.5-0.1c-0.1-0.1-0.3-0.1-0.4-0.2s-0.3-0.1-0.5-0.1c-0.5,0-1,0.1-1.6,0.3s-1,0.5-1.5,0.8
	s-1,0.7-1.4,1.1s-0.9,0.8-1.2,1.1c-0.2,0.2-0.3,0.4-0.4,0.6s-0.1,0.4-0.1,0.6c0,0.3,0.1,0.5,0.3,0.6s0.5,0.2,0.8,0.2
	c0.2,0,0.4,0,0.6,0s0.5,0,0.7,0s0.5,0,0.7,0s0.4,0,0.6,0c0.4,0,0.8,0.1,1.2,0.2s0.7,0.3,1,0.5s0.5,0.5,0.7,0.9s0.3,0.8,0.3,1.2
	c0,0.3,0,0.6-0.1,0.8s-0.2,0.6-0.3,0.9c-0.1,0.3-0.3,0.6-0.5,0.8s-0.4,0.6-0.6,0.8c-0.4,0.5-0.8,0.9-1.2,1.4s-1,0.8-1.5,1.1
	s-1.1,0.6-1.6,0.8s-1.2,0.3-1.8,0.3c-0.3,0-0.5,0-0.8-0.1s-0.6-0.1-0.8-0.2s-0.5-0.2-0.8-0.3c-0.2-0.1-0.4-0.3-0.6-0.5
	c-0.2-0.2-0.3-0.4-0.4-0.6c-0.1-0.2-0.2-0.5-0.2-0.7c0-0.1,0-0.2,0.1-0.4S250.7,79.8,250.8,79.8L250.8,79.8z"/>
<path d="M262.8,86.1c0.1-0.6,0.3-1.1,0.4-1.5s0.2-0.9,0.3-1.3c0.1-0.4,0.2-0.8,0.2-1.2c0.1-0.4,0.2-0.8,0.2-1.2
	c0.1-0.4,0.2-0.8,0.2-1.2s0.2-0.9,0.3-1.4l0.5-2.4c0.1-0.4,0.1-0.8,0.2-1.1s0-0.6,0-0.8c0-0.3,0-0.5,0-0.7s0-0.4,0.1-0.5
	s0.1-0.2,0.3-0.3c0.1-0.1,0.3-0.1,0.5-0.1c0.3,0,0.5,0,0.7,0.1s0.3,0.2,0.4,0.3s0.1,0.3,0.1,0.5s0,0.4,0,0.6
	c0.2-0.2,0.5-0.3,0.8-0.4s0.6-0.2,1-0.3c0.3-0.1,0.7-0.2,1-0.2c0.4-0.1,0.7-0.1,1-0.1c0.5,0,0.9,0.1,1.3,0.3
	c0.4,0.2,0.7,0.4,0.9,0.7s0.4,0.6,0.6,1c0.1,0.4,0.2,0.8,0.2,1.2c0,0.5-0.1,0.9-0.2,1.3s-0.4,0.8-0.6,1.2s-0.6,0.7-0.9,1
	c-0.4,0.3-0.7,0.6-1.1,0.9s-0.8,0.5-1.3,0.7c-0.4,0.2-0.9,0.4-1.3,0.6c-0.3,0.1-0.5,0.2-0.8,0.3c-0.2,0.1-0.5,0.1-0.7,0.1
	c-0.3,0-0.6,0-0.8-0.1s-0.5-0.2-0.8-0.3c-0.1,0.5-0.2,0.9-0.4,1.3s-0.2,0.8-0.2,1.1c0,0.2-0.1,0.4-0.1,0.7c0,0.2-0.1,0.4-0.1,0.7
	s-0.1,0.4-0.1,0.6s-0.1,0.4-0.1,0.5s-0.1,0.2-0.1,0.2s-0.2,0.1-0.3,0.1c-0.1,0-0.2,0.1-0.3,0.1c-0.1,0-0.2,0-0.3,0
	c-0.5,0-0.8-0.2-0.8-0.6C262.8,86.3,262.8,86.2,262.8,86.1L262.8,86.1z M266,80.1c0.1,0,0.2,0,0.3,0.1c0.1,0,0.2,0,0.3,0.1
	s0.2,0,0.3,0.1c0.1,0,0.1,0,0.2,0s0.3,0,0.4-0.1c0.2,0,0.3-0.1,0.5-0.1c0.2-0.1,0.3-0.1,0.5-0.2c0.1-0.1,0.3-0.1,0.4-0.2
	c0.3-0.2,0.7-0.4,1.1-0.6s0.7-0.5,1.1-0.8c0.3-0.3,0.6-0.7,0.8-1.1c0.2-0.4,0.3-0.8,0.3-1.3c0-0.2,0-0.4-0.1-0.5
	c0-0.2-0.1-0.3-0.2-0.4s-0.2-0.2-0.4-0.3c-0.2-0.1-0.3-0.1-0.6-0.1c-0.2,0-0.5,0-0.7,0.1c-0.2,0-0.4,0.1-0.6,0.2s-0.4,0.2-0.6,0.3
	c-0.2,0.1-0.4,0.2-0.6,0.4c-0.2,0.2-0.4,0.3-0.6,0.4s-0.5,0.2-0.8,0.2L266,80.1L266,80.1z"/>
<path d="M275.7,80.3c0.1-0.4,0.2-0.9,0.4-1.4c0.1-0.5,0.3-1.1,0.5-1.7s0.3-1.2,0.5-1.8s0.3-1.2,0.5-1.8c0,0,0-0.1,0.1-0.1
	s0.1-0.1,0.2-0.2s0.2-0.1,0.3-0.2c0.1-0.1,0.3-0.1,0.4-0.1s0.2,0,0.3,0c0.1,0,0.2,0.1,0.3,0.1s0.2,0.1,0.2,0.2s0.1,0.2,0.1,0.3v0.1
	v0.1l-0.3,1.1c-0.3,1.2-0.7,2.5-1,3.7s-0.7,2.5-1,3.7c0,0,0,0.1-0.1,0.2c0,0.1-0.1,0.1-0.1,0.2s-0.1,0.1-0.2,0.2
	c-0.1,0-0.1,0.1-0.2,0.1c-0.2,0-0.3,0-0.5-0.1s-0.3-0.2-0.4-0.3c-0.1-0.1-0.2-0.2-0.2-0.4s-0.1-0.3-0.1-0.4v-0.1v-0.1L275.7,80.3
	L275.7,80.3z M278.4,69.6c0-0.2,0.1-0.3,0.2-0.5s0.2-0.4,0.5-0.6c0.1-0.1,0.2-0.1,0.4-0.2c0.2-0.1,0.3-0.1,0.3-0.1s0.1,0,0.2,0.1
	s0.1,0.1,0.2,0.2s0.1,0.1,0.2,0.2c0.2,0,0.3,0.1,0.3,0.2s0.1,0.2,0.1,0.4c0,0.1,0,0.2,0,0.3c0,0.1,0,0.2,0,0.2
	c0,0.2-0.1,0.3-0.2,0.4s-0.2,0.2-0.4,0.3c-0.1,0.1-0.3,0.2-0.5,0.2c-0.2,0.1-0.3,0.1-0.4,0.1c-0.2,0-0.3,0-0.4-0.1s-0.2-0.2-0.3-0.3
	c-0.1-0.1-0.1-0.2-0.1-0.2c0-0.1,0-0.1,0-0.2s0-0.1,0-0.2C278.4,69.7,278.4,69.7,278.4,69.6L278.4,69.6z"/>
<path d="M281.3,81.2c0.1-0.5,0.2-1,0.3-1.6s0.2-1.2,0.4-1.8c0.1-0.6,0.2-1.2,0.4-1.8c0.1-0.6,0.2-1.1,0.3-1.6c0-0.1,0-0.1,0-0.2V74
	c0-0.2,0-0.4,0-0.6s0.1-0.4,0.1-0.6c0.1-0.3,0.2-0.4,0.2-0.5s0.2-0.1,0.5-0.1s0.4,0,0.5,0.1s0.2,0.2,0.3,0.3s0.1,0.3,0.1,0.4
	s0,0.3,0,0.5c0,0.1,0,0.2,0,0.3c0,0.1,0,0.2,0,0.3c0.2-0.2,0.4-0.4,0.6-0.6s0.5-0.4,0.7-0.6s0.5-0.3,0.8-0.4s0.6-0.2,0.9-0.2
	c0.1,0,0.2,0,0.4,0c0.1,0,0.2,0.1,0.4,0.1c0.1,0,0.3,0.1,0.4,0.1s0.3,0.1,0.4,0.2c0.2,0.2,0.4,0.4,0.6,0.7c0.2,0.3,0.2,0.5,0.2,0.8
	c0,0.1,0,0.2-0.1,0.3c0,0.1-0.1,0.2-0.2,0.3s-0.2,0.2-0.2,0.2c-0.1,0.1-0.2,0.1-0.3,0.1s-0.3,0-0.4-0.1s-0.3-0.1-0.4-0.2
	c0,0-0.1-0.1-0.1-0.2s-0.1-0.2-0.1-0.2l-0.1-0.2l-0.1-0.1h-0.1h-0.1c-0.4,0-0.7,0.1-1,0.3s-0.6,0.4-0.9,0.7
	c-0.3,0.3-0.5,0.5-0.8,0.8s-0.4,0.6-0.6,0.8c-0.1,0.6-0.3,1.2-0.5,1.8c-0.2,0.6-0.3,1.3-0.5,2v0.3c0,0.2,0,0.4,0,0.6s0,0.4-0.1,0.6
	c-0.1,0.1-0.2,0.2-0.3,0.3c-0.1,0.1-0.3,0.1-0.5,0.1c-0.3,0-0.5-0.1-0.6-0.3s-0.2-0.4-0.2-0.7C281.3,81.4,281.3,81.3,281.3,81.2
	L281.3,81.2z"/>
<path d="M290.1,80.3c0.1-0.4,0.2-0.9,0.4-1.4c0.1-0.5,0.3-1.1,0.5-1.7s0.3-1.2,0.5-1.8s0.3-1.2,0.5-1.8c0,0,0-0.1,0.1-0.1
	s0.1-0.1,0.2-0.2s0.2-0.1,0.3-0.2c0.1-0.1,0.3-0.1,0.4-0.1s0.2,0,0.3,0c0.1,0,0.2,0.1,0.3,0.1s0.2,0.1,0.2,0.2s0.1,0.2,0.1,0.3v0.1
	v0.1l-0.3,1.1c-0.3,1.2-0.7,2.5-1,3.7s-0.7,2.5-1,3.7c0,0,0,0.1-0.1,0.2c0,0.1-0.1,0.1-0.1,0.2s-0.1,0.1-0.2,0.2
	c-0.1,0-0.1,0.1-0.2,0.1c-0.2,0-0.3,0-0.5-0.1s-0.3-0.2-0.4-0.3c-0.1-0.1-0.2-0.2-0.2-0.4s-0.1-0.3-0.1-0.4v-0.1v-0.1L290.1,80.3
	L290.1,80.3z M292.8,69.6c0-0.2,0.1-0.3,0.2-0.5s0.2-0.4,0.5-0.6c0.1-0.1,0.2-0.1,0.4-0.2c0.2-0.1,0.3-0.1,0.3-0.1s0.1,0,0.2,0.1
	s0.1,0.1,0.2,0.2s0.1,0.1,0.2,0.2c0.2,0,0.3,0.1,0.3,0.2s0.1,0.2,0.1,0.4c0,0.1,0,0.2,0,0.3c0,0.1,0,0.2,0,0.2
	c0,0.2-0.1,0.3-0.2,0.4s-0.2,0.2-0.4,0.3c-0.1,0.1-0.3,0.2-0.5,0.2c-0.2,0.1-0.3,0.1-0.4,0.1c-0.2,0-0.3,0-0.4-0.1s-0.2-0.2-0.3-0.3
	c-0.1-0.1-0.1-0.2-0.1-0.2c0-0.1,0-0.1,0-0.2s0-0.1,0-0.2C292.8,69.7,292.8,69.7,292.8,69.6L292.8,69.6z"/>
<path d="M297,79c0-0.6,0.1-1.2,0.2-1.8c0.1-0.6,0.3-1.2,0.4-1.8c-0.2,0-0.4,0-0.5-0.1s-0.4-0.1-0.5-0.2s-0.3-0.2-0.4-0.3
	s-0.1-0.3-0.1-0.4s0-0.1,0-0.2s0.1-0.2,0.1-0.3c0-0.1,0.1-0.2,0.2-0.2s0.2-0.1,0.3-0.1h1.4c0.1,0,0.2-0.1,0.3-0.2s0.1-0.2,0.1-0.3
	c0.1-0.4,0.2-0.8,0.2-1s0.1-0.5,0.2-0.8c0-0.2,0.1-0.4,0.1-0.5s0-0.2,0-0.3c0-0.1,0-0.2,0-0.3s0-0.2,0-0.3v-0.1c0-0.1,0-0.1,0-0.2
	s0-0.2,0.1-0.4c0-0.1,0.1-0.3,0.2-0.4s0.3-0.2,0.5-0.2s0.4,0,0.5,0.1s0.2,0.2,0.3,0.3c0.1,0.1,0.1,0.3,0.2,0.4s0.1,0.3,0.1,0.5
	s0,0.3,0,0.5l-0.8,2.9c0.4-0.1,0.7-0.1,1-0.2s0.6-0.1,0.9-0.2s0.6-0.1,0.8-0.2c0.2-0.1,0.4-0.1,0.6-0.1s0.3-0.1,0.4-0.1s0.2,0,0.3,0
	c0.1,0,0.2,0,0.3,0c0.1,0,0.2,0.1,0.3,0.1c0.1,0,0.2,0.1,0.2,0.2s0.1,0.2,0.1,0.3c0,0.2,0,0.3-0.1,0.4s-0.1,0.2-0.2,0.3
	c-0.1,0.1-0.2,0.2-0.4,0.2c-0.1,0.1-0.3,0.1-0.4,0.1s-0.2,0.1-0.4,0.1c-0.2,0-0.4,0.1-0.6,0.1c-0.2,0.1-0.4,0.1-0.7,0.2
	c-0.2,0.1-0.5,0.1-0.7,0.2c-0.3,0.1-0.6,0.2-0.8,0.2c-0.2,0.1-0.4,0.1-0.6,0.1s-0.3,0.1-0.4,0.1s-0.2,0-0.2,0
	c-0.1,0.4-0.2,0.8-0.3,1.2c-0.1,0.4-0.2,0.7-0.2,1.1c-0.1,0.3-0.1,0.6-0.1,0.9s0,0.5,0,0.6c0,0.2,0,0.4,0,0.5c0,0.2,0.1,0.3,0.2,0.4
	s0.2,0.2,0.3,0.3s0.3,0.1,0.5,0.1c0.4,0,0.7-0.1,1.1-0.3c0.4-0.2,0.7-0.5,1-0.8s0.6-0.7,0.9-1c0.3-0.4,0.5-0.7,0.8-1.1
	c0.1-0.1,0.2-0.2,0.3-0.2h0.1c0,0,0.1,0,0.2,0.1c0.1,0,0.1,0.1,0.1,0.1c0,0.1,0.1,0.1,0.1,0.2s0,0.1,0,0.1c-0.1,0.4-0.3,0.9-0.5,1.3
	s-0.5,0.9-0.7,1.3c-0.1,0.2-0.2,0.3-0.3,0.4c-0.1,0.1-0.3,0.3-0.4,0.4s-0.3,0.3-0.5,0.4s-0.3,0.2-0.5,0.3c-0.3,0.2-0.5,0.3-0.9,0.3
	s-0.6,0.1-0.9,0.1c-0.5,0-0.9-0.1-1.2-0.2c-0.4-0.2-0.6-0.4-0.9-0.7c-0.2-0.3-0.4-0.6-0.5-1S297.1,79.4,297,79L297,79z"/>
<path d="M242.7,80.3c0.1-0.4,0.2-0.9,0.4-1.4c0.1-0.5,0.3-1.1,0.5-1.7s0.3-1.2,0.5-1.8s0.3-1.2,0.5-1.8c0,0,0-0.1,0.1-0.1
	s0.1-0.1,0.2-0.2s0.2-0.1,0.3-0.2c0.1-0.1,0.3-0.1,0.4-0.1s0.2,0,0.3,0c0.1,0,0.2,0.1,0.3,0.1s0.2,0.1,0.2,0.2s0.1,0.2,0.1,0.3v0.1
	v0.1l-0.3,1.1c-0.3,1.2-0.7,2.5-1,3.7s-0.7,2.5-1,3.7c0,0,0,0.1-0.1,0.2c0,0.1-0.1,0.1-0.1,0.2s-0.1,0.1-0.2,0.2
	c-0.1,0-0.1,0.1-0.2,0.1c-0.2,0-0.3,0-0.5-0.1s-0.3-0.2-0.4-0.3c-0.1-0.1-0.2-0.2-0.2-0.4s-0.1-0.3-0.1-0.4v-0.1v-0.1L242.7,80.3
	L242.7,80.3z M245.4,69.6c0-0.2,0.1-0.3,0.2-0.5s0.2-0.4,0.5-0.6c0.1-0.1,0.2-0.1,0.4-0.2c0.2-0.1,0.3-0.1,0.3-0.1s0.1,0,0.2,0.1
	s0.1,0.1,0.2,0.2s0.1,0.1,0.2,0.2c0.2,0,0.3,0.1,0.3,0.2s0.1,0.2,0.1,0.4c0,0.1,0,0.2,0,0.3c0,0.1,0,0.2,0,0.2
	c0,0.2-0.1,0.3-0.2,0.4s-0.2,0.2-0.4,0.3c-0.1,0.1-0.3,0.2-0.5,0.2c-0.2,0.1-0.3,0.1-0.4,0.1c-0.2,0-0.3,0-0.4-0.1s-0.2-0.2-0.3-0.3
	c-0.1-0.1-0.1-0.2-0.1-0.2c0-0.1,0-0.1,0-0.2s0-0.1,0-0.2C245.4,69.7,245.4,69.7,245.4,69.6L245.4,69.6z"/>
</svg>
