<?xml version="1.0" encoding="utf-8"?>
<!-- Generator: Adobe Illustrator 21.0.0, SVG Export Plug-In . SVG Version: 6.00 Build 0)  -->
<svg version="1.1"
	 id="Layer_1" inkscape:version="0.48.3.1 r9886" sodipodi:docname="noun_project_15028.svg" xmlns:cc="http://creativecommons.org/ns#" xmlns:dc="http://purl.org/dc/elements/1.1/" xmlns:inkscape="http://www.inkscape.org/namespaces/inkscape" xmlns:rdf="http://www.w3.org/1999/02/22-rdf-syntax-ns#" xmlns:sodipodi="http://sodipodi.sourceforge.net/DTD/sodipodi-0.dtd" xmlns:svg="http://www.w3.org/2000/svg"
	 xmlns="http://www.w3.org/2000/svg" xmlns:xlink="http://www.w3.org/1999/xlink" x="0px" y="0px" viewBox="0 0 46.6 46.2"
	 style="enable-background:new 0 0 46.6 46.2;" xml:space="preserve">
<style type="text/css">
	.st0{fill:#FFFFFF;}
</style>
<sodipodi:namedview  bordercolor="#666666" borderopacity="1" fit-margin-bottom="0" fit-margin-left="0" fit-margin-right="0" fit-margin-top="0" gridtolerance="10" guidetolerance="10" id="namedview11" inkscape:current-layer="Layer_1" inkscape:cx="20.539" inkscape:cy="22.938967" inkscape:pageopacity="0" inkscape:pageshadow="2" inkscape:window-height="480" inkscape:window-maximized="0" inkscape:window-width="640" inkscape:window-x="35" inkscape:window-y="0" inkscape:zoom="2.36" objecttolerance="10" pagecolor="#ffffff" showgrid="false">
	</sodipodi:namedview>
<g id="XMLID_13_" transform="translate(-29.461,-26.738)">
	<g id="g4">
		<g id="XMLID_10_">
			<g id="g7">
				<path id="path9" inkscape:connector-curvature="0" class="st0" d="M69.9,72.7L59,61.8c-3,2-6.6,3.1-10.4,3.1
					c-10.5,0-19.1-8.5-19.1-19.1c0-10.5,8.5-19.1,19.1-19.1c10.5,0,19.1,8.5,19.1,19.1c0,3.7-1,7.1-2.8,10l11,11
					c0.6,0.6,0.1,2-1.1,3.1l-1.6,1.6C71.9,72.8,70.5,73.3,69.9,72.7z M61.2,45.8c0-7-5.7-12.7-12.7-12.7c-7,0-12.7,5.7-12.7,12.7
					s5.7,12.7,12.7,12.7C55.6,58.5,61.2,52.8,61.2,45.8z"/>
			</g>
		</g>
	</g>
</g>
</svg>
