<?xml version="1.0" encoding="UTF-8"?>
<svg xmlns="http://www.w3.org/2000/svg" viewBox="0 0 164.3 251.69">
  <defs>
    <style>
      .cls-1 {
        fill-rule: evenodd;
      }

      .cls-1, .cls-2, .cls-3 {
        fill: #323333;
      }

      .cls-3 {
        stroke-width: .37px;
      }

      .cls-3, .cls-4 {
        stroke: #323333;
        stroke-miterlimit: 10;
      }

      .cls-4 {
        fill: none;
        stroke-width: .37px;
      }
    </style>
  </defs>
  <g>
    <g>
      <path class="cls-3" d="m46.06,84.1h.65l.52.65c-.9,4.75-4.44,10.46-10.63,17.14-.32.35-.65.46-1,.35l-.3-.26c-.23-.17.38-1.03,1.82-2.56,3.41-3.44,6.29-8.51,8.64-15.19l.3-.13Zm5.73-8.55h.56c.4.2.61.42.61.65l-.09,1.17.17.3,4.69-1.65c.4.17.58.38.52.61,0,.69-1.82,1.62-5.47,2.78-.06,1.07-.45,2.43-1.17,4.08l-.74,1.09-.43.17c1.88,1.42,6,3.85,12.37,7.29l.39.26v.65l-.39.35c-4.86-1.74-9.72-4.18-14.58-7.33-.29-.14-.43-.52-.43-1.13.23-.49.59-.74,1.09-.74l.91.3c.61-.72.97-2.13,1.09-4.21l-.17-.17c-.67.38-3.31,1.07-7.94,2.08l.22,3.56.52,1.48v.26l-.35.35h-.39c-.46.09-1-.97-1.61-3.17l-.39-2.39-3.08.48c-.23,0-.45-.22-.65-.65v-.61c-.06-.38.61-.62,2-.74l1.74-.39-.09-1.17c.12-.35.36-.56.74-.65h.43c.32.15.54.69.65,1.65.78.06,2.82-.33,6.12-1.17l2.52-.82.17-2.17.48-.39Zm-.43,16.01c.61-.06.97.93,1.09,2.95l.17.35,4.73-2.34.48.69c-.64,1.21-2.31,2.34-5.03,3.38l-.09,5.12c.17.78,0,2.98-.52,6.6.12,1.1-.43,1.97-1.65,2.6-2.08.12-4.51-1.13-7.29-3.73l.43,1.91-.35.52h-.43c-.61.29-1.29-.93-2.04-3.65l-.43-1.17c.06-.55.36-.88.91-1h.35c.38-.26.81.43,1.3,2.08.4,1.04,2.57,2.23,6.51,3.56h.56c.78-1.04,1.11-4.96,1-11.76l-.26-.26c-2.72,1.27-5.54,2.1-8.46,2.47h-.35c-.43-.32-.65-.61-.65-.87v-.26c.23-.84.93-1.2,2.08-1.08.55.32,3.01-.43,7.38-2.26l-.35-3.12c.29-.46.59-.71.91-.74Zm6.16,10.07c1.22.52,2.85,2.3,4.9,5.34.32.49.42.85.3,1.08l-.22.39h-.43c-.46-.03-2.1-1.71-4.9-5.03-.38-.61-.51-.97-.39-1.09.2-.35.45-.58.74-.69Z"/>
      <path class="cls-3" d="m44.98,120.68l2.43.3h.65l1.74.43c1.04,1.04.27,2.89-2.3,5.55l.22,2h.26c.72-.06,2.69-.91,5.9-2.56.87.26.51.81-1.09,1.65-.17.32-1.87,1.14-5.08,2.47v.35c.17-.17.84.38,2,1.65l.74.56c2.95,3.12,6.62,5.87,11.02,8.25l2.69,1.48.48.65v.61l-.56.3c.06-.2-1.61-.97-4.99-2.3-2.6-.96-6.25-3.66-10.94-8.12h-.26l.17,5.21c.38,1.77.22,3.53-.48,5.29-.29.67-.74,1-1.35,1-.78-.06-.72-.8.17-2.21.32-.95.23-3.83-.26-8.64-3.15,4.74-6.83,9.36-11.02,13.84-.41-.17.01-1.06,1.26-2.65l7.46-10.63,1.74-3.21v-.26c-.06-.12-.45.03-1.17.43l-7.72,3.21-2.08.52c-.49.06-.77-.23-.82-.87v-.39c2-.43,5.99-3.1,11.98-7.98,0-.43.61-1.01,1.82-1.74l1.21-1.82c0-.26-.82-.39-2.47-.39l-1.82-.26-.26-.35v-.74c.12-.43.36-.65.74-.65Zm.69,7.64l-4.69,3.38,4.9-1.82-.09-1.56h-.13Zm8.59,16.06h1.35c1.16-.06,1.87.58,2.13,1.91v2c-.15,1.76-1.74,4.48-4.77,8.16-1.68,1.04-3.82,1.62-6.42,1.74h-.39c-1.94-1.21-2.94-2.91-2.99-5.08l-1.3-6.03v-.35c.26-.61.54-.84.82-.69h.39c.55.41.78.8.69,1.17,2.26-1.27,5.76-2.21,10.5-2.82Zm.43,1.65c-3.1.29-6.16,1.16-9.2,2.6l-1.35.82.43,2.65.22.17,8.64-3.56,1.17-.09.48.56c-.87.9-2.18,1.65-3.95,2.26l-5.64,2.65-.35.35.52,1.48v.26h1.95c3.99.17,6.87-2.71,8.64-8.64l.09-.83c-.17-.35-.48-.58-.91-.69h-.74Z"/>
      <path class="cls-3" d="m41.94,164.55l.3-.09c.55-.26.88.46,1,2.17l.35,3.08.17.09c1.42-1.01,2.4-2.62,2.95-4.82l.61-.17.48.43.26.13-.35.91c-.38,2-1.59,3.63-3.65,4.9l2.99,3.34.52,1.21-.26.35h-.26c-.17.17-1.03-.46-2.56-1.91l-1.35-1.26h-.26l-2.04,3.51-1.09,1.13h-.35l-.48-.48,1.91-3.25c.43-.61.62-1.19.56-1.74l-.82-1-.17.09-.56.09c-.55.29-1.66-1.04-3.34-3.99v-.3c.55-.41.88-.55,1-.43.4-.12.77.36,1.09,1.43l1.52,2.13.87.35c1.13-.06,1.27-1.94.43-5.64l.52-.26Zm-4.08,12.54h.26c.87-.12,1.27,1.43,1.22,4.64l-1,3c-.09.49-.39.88-.91,1.17h-.3l-.52-.43c1.33-2.43,1.5-4.92.52-7.46v-.26l.74-.65Zm3.21,21.22h.43l.56.69-1.09,3.64-.22,1.04c0,.52-.12.78-.35.78h-.3c-.29.06-.58-.2-.87-.78-.43-.12-.04-1.74,1.17-4.86l.26-.43h.09l.3-.09Zm19.83-22.74l1,.35v.35l.09.3c-1.62,2.34-4.53,4.22-8.72,5.64l-.22-.39c-.12-.17,1.42-1.26,4.6-3.25l1.69-1.3.09-.35-.91.09c-.23.26-2.44.51-6.64.74l-6.73.83c-1.16.23-2.62.68-4.38,1.34l-.52-.61.09-.39c1.5-1.45,4.3-2.3,8.38-2.56,2.89-.29,6.86-.52,11.89-.69l.3-.09Zm-13.67,18.75h.48c1.22.84,1.39,4.25.52,10.24l-.17,1.13-.17.43c.17.69.01,1.16-.48,1.39h-.35c-1.76-.61-3.25-2.71-4.47-6.29l3.21,3.95.52.52c.49-.43.65-.77.48-1l.26-2.56v-.52c.23-.15.23-1.85,0-5.12l-.52-1.48c.12-.35.35-.58.69-.69Zm-.35-14.02c.49.23.72.43.69.61,0,1.04-.42,2.26-1.26,3.65l2.13-.43c.12-.09.81-.12,2.08-.09.52.12.72.35.61.69v.65c-1.01,2.32-2.71,4.31-5.08,5.99v.22l6.03-1.65h.52c.98,0,1.48.25,1.48.74l.09.91c-.26,1.45-1.42,2.78-3.47,3.99l-1.3.17-.26-.26,2.73-2.56.65-1.48-.74-.26-6.64,2.39-1.3.17c-.72-.26-1.04-.65-.96-1.17-.15-.23,1.61-2.02,5.25-5.38l1-1.48-.17-.17c-.35-.12-1.74.35-4.17,1.39h-1.04l-.52-.48c-.49-.29.09-1.26,1.74-2.91.46-.55.82-1.52,1.09-2.91l.82-.35Zm10.11-16.49h.26c.49.06.74.28.74.65-.38,2.4-1.5,4.15-3.38,5.25.38.43,1.23.87,2.56,1.3.49.17.85.59,1.08,1.26l-.35.56c-.69,0-2.24-.46-4.64-1.39-.14-.12-.54.46-1.17,1.74l-1.3,1.43-.43.04-.65-.39c-.14-.12.39-1.06,1.61-2.82l.56-1.26v-.09c-.72,0-1.75-.88-3.08-2.65v-.56l.43-.43.26-.09h.39c.17-.14.62.33,1.35,1.43l.87,1h.09c.52-.66.69-2.11.52-4.34l.56-.48h.43c.55.32.74.51.56.56v3.65h.17c1.27-1.16,2-2.53,2.17-4.12l.39-.26Zm.17,33.11h.35l.3.17c1.01,1.16,1.94,3.3,2.78,6.42l-.26.43h-.26c-.35.17-.93-.82-1.74-2.99-.55-.55-1.19-1.68-1.91-3.38.06-.38.3-.59.74-.65Z"/>
      <path class="cls-3" d="m34.95,216.93h.82c.43.12.65.72.65,1.82-.03.81-.67,2.11-1.91,3.91l2.26-.78,1.08-.09c.32.06.56.26.74.61.61.38-.88,3-4.47,7.86l-.26.43c1.16-.72,2.92-1.58,5.29-2.56l1.52-.17,1.09.65v.65c.2.52-.97,1.76-3.52,3.73l.09,1.17.35.82-.09.61,3.47,3.82.52.87c5.12-1.3,11.41-3.98,18.88-8.03l.52.35v.56c.06.46-1.39,1.4-4.34,2.82.58,1.07.69,3.2.35,6.38.55,1.85,1.61,2.78,3.17,2.78l1.35.09c1.79-.29,3.04-1.16,3.73-2.6.14-.78-.03-1.53-.52-2.26.06-.81.49-.78,1.3.09.4.46.58,1.3.52,2.52-.98,2.2-2.78,3.5-5.38,3.91h-1.08c-2.75-.41-4.33-1.74-4.73-3.99l-.09-5.08-.56-1-3.73,1.82c-.49,2.49-1.35,5.12-2.56,7.9l-1.26,2.47-.35.35h-.22l-.52-.48c0-.69.69-2.78,2.08-6.25l.74-3.04c-1.53.87-3.86,1.66-6.99,2.39-.26.26-1.3-.65-3.12-2.73l-1.26-1.08c-.2.06-.26.69-.17,1.91l-.09,3.95c.12,1.56.01,3.12-.3,4.69-.17.75-.59,1.3-1.26,1.65h-.82c-.9-.46-1.42-1.49-1.56-3.08,0-.49.1-.8.3-.91.4.12.91.81,1.52,2.08h.17c.55-1.45.68-3.82.39-7.12l-.09-1.17c-.06.43-1.37,1.81-3.95,4.12l-.69.09-.48-.48c-.23-.17.04-.56.82-1.17,2.08-1.62,3.57-4.02,4.47-7.2l-.26-1.74c-.93-.72-.81-1.27.35-1.65.9-.06,1.92-.92,3.08-2.6v-.17c-1.45.17-4.02,1.62-7.72,4.34h-.26c-.32-.06-.59-.32-.82-.78-.23-.43,1.62-3.5,5.55-9.2v-.39c-.26-.06-1.81.82-4.64,2.65h-.56l-.61-.74c-.2-.23.19-.81,1.17-1.74,1.27-1.13,2.21-2.73,2.82-4.82l-.26-1.43.35-.3Zm11.37,7.55h.65c.4-.06.79.58,1.17,1.91l2.21-1.35h.26c.98.55.22,1.58-2.3,3.08.09.98-.16,2.2-.74,3.65.03.23.46.03,1.3-.61l1.74-.82h.35l.26.26v.35c-.06.78-2.75,2.49-8.07,5.12-.61-.12-.94-.48-1-1.08-.06-.26.39-.56,1.35-.91,1.71-.49,2.75-2.17,3.12-5.03l-2.95.91c-.29.06-.55-.2-.78-.78v-.39c-.15-.26.91-.74,3.17-1.43l.48-.22-.56-2.34.35-.3Zm7.46-11.11l.3.04c.4.06.61.23.61.52.06.67-1.13,1.74-3.56,3.21.14.23,0,1.07-.43,2.52l1.09-.26c.55.17.77.42.65.74.23.41-1.26,1.49-4.47,3.25l-1.65.91h-.26l-.48-.61v-.74c2.31-.93,3.59-2.42,3.82-4.47l.09-.56-.17-.17-2.78.74-.65-.74v-.61c-.15-.38.61-.62,2.26-.74l1-.48c-.35-.4-.55-.79-.61-1.17v-.26l.61-.56h.26c.58.06,1.04.51,1.39,1.35l2.99-1.91Zm6.03,7.94l.78.65v.52c-.29.43-.98.9-2.08,1.39l.56,2.65-.17,1.17h.17l.65-.48h.69l.3.48v.52c-.2.69-2.39,2.07-6.55,4.12h-.3c-.35-.12-.55-.33-.61-.65v-.43c1.01-.43,2.16-1.29,3.43-2.56.69-.67.94-1.55.74-2.65l-.43-1.08-1.95.83-.61-.83v-.35c-.12-.26.49-.67,1.82-1.21-.12-.67,0-1,.35-1l1.3.26,1.91-1.34Z"/>
    </g>
    <g>
      <g>
        <path class="cls-1" d="m3.32,25.59c-.1,0-.18-.03-.24-.1-.06-.07-.09-.14-.09-.22,0-.08.04-.16.11-.22.07-.07.15-.1.25-.1.29,0,.53.03.73.1.19.07.35.16.47.27.23.24.36.53.39.87l.52,4.47,2.12-5.42c.04-.08.11-.14.19-.18.08-.04.17-.05.26-.02.13.04.21.12.24.23l1.07,5.44,1.91-5.76c.03-.09.09-.15.17-.2.08-.04.17-.05.27-.03.1.02.17.07.21.14.04.07.05.15.02.24l-2.33,7.04c-.04.12-.13.2-.28.24-.1.02-.19,0-.27-.04-.08-.04-.12-.11-.14-.2l-1.1-5.58-2.22,5.6c-.04.12-.14.19-.29.22-.1,0-.19-.01-.26-.06-.07-.05-.12-.12-.13-.2l-.67-5.85c-.02-.22-.09-.39-.21-.51-.1-.12-.34-.19-.71-.19Z"/>
        <path class="cls-1" d="m22.6,31.99l-.04.31c-.01.09-.05.16-.12.21-.07.05-.16.07-.26.07-.09,0-.17-.03-.22-.1-.06-.07-.08-.14-.07-.23l.08-.61s0-.02.01-.04c0-.01,0-.02,0-.03l.8-6.44c.01-.08.05-.15.11-.2s.14-.08.22-.08c1.16-.12,2.1-.05,2.83.22s1.27.64,1.61,1.14c.2.3.34.63.41,1.01.08.38.09.74.05,1.09-.03.34-.13.71-.27,1.09-.15.38-.35.73-.59,1.03-.46.55-1.07.98-1.84,1.28-.77.3-1.67.4-2.7.29h0Zm.81-6.55l-.73,5.94c.9.1,1.68.02,2.34-.23.66-.25,1.19-.62,1.57-1.09.2-.25.37-.54.49-.87.13-.33.21-.64.24-.93.03-.28.02-.57-.04-.89-.06-.31-.17-.59-.33-.82-.27-.38-.69-.68-1.28-.89-.58-.21-1.34-.28-2.26-.22Z"/>
        <path class="cls-1" d="m13.22,28.92c-.19.07-.39-.03-.46-.21-.07-.19.03-.39.21-.46,0,0,1.31-.48,2.79-1.32-.18-.43-.37-.86-.58-1.29-1.07-2.26-.69-3.99.25-5.09.69-.81,1.69-1.27,2.63-1.36.98-.09,1.91.23,2.42.98.51.76.57,1.96-.25,3.59-.71,1.42-2.17,2.59-3.57,3.46.1.26.2.52.29.78,1.55-.94,3-1.95,4-3.17.13-.15.35-.18.51-.05s.18.35.05.51c-1.1,1.34-2.67,2.41-4.32,3.42.22.7.38,1.4.47,2.08.17,1.24-.03,2.52-.48,3.68-.48,1.22-1.24,2.31-2.16,3.07-.9.74-1.95,1.09-2.93,1.09-.66,0-1.29-.16-1.82-.45-.54-.3-.97-.75-1.22-1.32-.26-.59-.31-1.31-.07-2.14.72-2.48,3.47-4.08,6.33-5.75.34-.2.67-.39,1.01-.59l-.02-.06c-.08-.24-.17-.48-.27-.73-1.51.86-2.81,1.33-2.82,1.33h0Zm3.17-2.37h0c1.28-.8,2.57-1.86,3.2-3.11.69-1.36.68-2.3.3-2.87-.35-.52-1.03-.74-1.76-.67-.77.07-1.58.45-2.15,1.11-.77.91-1.07,2.36-.14,4.31.19.41.38.82.55,1.22h0Zm.56,4.33h0c-.08-.59-.22-1.19-.4-1.79-.29.17-.58.34-.87.51-2.73,1.59-5.36,3.13-6,5.32-.19.65-.15,1.2.04,1.65.18.42.5.75.9.97.42.23.93.36,1.47.36.82,0,1.71-.29,2.47-.92.82-.68,1.51-1.67,1.94-2.78.41-1.05.59-2.21.44-3.32Z"/>
      </g>
      <g>
        <path class="cls-1" d="m2.81,43.93s.04-.1.05-.13c.02-.07.05-.16.1-.21.08-.08.19-.05.28,0,.08.03.15.09.17.17.03.1.03.27.03.38,0,.12,0,.23,0,.35,0,.09,0,.19,0,.28,0,.08-.02.16-.04.24-.03.11-.09.2-.16.29-.08.12-.2.29-.31.39-.09.07-.2.1-.31.09-.3-.03-.3-.23-.13-.44.19-.23.22-.56.2-.85-.01-.09-.03-.27-.01-.35.02-.07.06-.13.11-.19h0s0,0,0,0h0ZM.14,48.15s.1.11.17.13c.07.02.17,0,.24,0,.15-.02.32-.03.47-.07.12-.03.24-.09.34-.15.1-.06.2-.12.31-.17.47-.2.94-.48,1.37-.76.38-.24.79-.5,1.19-.7.09-.04.18-.09.26-.14.2-.11,1.02-.58,1.23-.62,0,0,0,0,.01,0-.02.06-.09.16-.11.18-.07.08-.15.18-.19.28-.04.05-.12.13-.16.17-.09.09-.18.18-.26.27-.06.08-.13.19-.06.28.09.27.37.06.49-.06l.4-.4c.18-.18.41-.41.57-.62.08-.11.15-.23.16-.37.02-.22-.04-.42-.24-.53-.15-.1-.33-.12-.51-.08-.16.03-.32.08-.47.15-.13.06-.25.14-.36.22-.12.1-.32.2-.45.28-.37.22-.74.43-1.12.65-.21.13-.42.25-.63.38-.17.1-.35.21-.52.3-.14.08-.3.15-.44.22-.25.12-.5.24-.76.35-.03.01-.12.05-.17.06,0-.07.06-.21.07-.25.04-.11.07-.23.1-.34.03-.12.07-.24.12-.35.04-.09.1-.16.17-.23.13-.12.26-.3.19-.48-.07-.18-.26-.22-.43-.22-.07,0-.16,0-.23.03-.07.03-.14.1-.2.15-.15.15-.23.37-.28.57-.11.37-.23.74-.34,1.12-.04.13-.1.32-.1.46,0,.11.06.2.14.28H.14Zm4.41,3.27c.08.09.11.2.13.32.01.09.03.19.05.27.04.16.07.33.07.49,0,.15,0,.31-.02.46-.02.15-.05.3-.09.45-.04.14-.07.28-.13.42-.05.14-.1.27-.15.41-.05.12-.09.24-.13.36-.01.13-.16.31-.23.4-.04.05-.2.24-.21.29h0s0,.03,0,.03c-.07.09-.2.16-.3.21-.07.03-.19.08-.25.13h0s0,0,0,0c-.4.25-.8.23-1.15-.08h0s0,0,0,0c-.04-.04-.07-.07-.13-.05-.06.03-.11.07-.15.12-.06.07-.11.15-.16.23-.05.08-.11.16-.19.22h0s0,0,0,0c-.03.01-.08.06-.11.08-.06.05-.12.09-.18.14-.06.04-.12.08-.19.12-.08.04-.16.06-.25.04-.09-.01-.16-.06-.21-.13-.17-.14-.06-.45,0-.62h0s0-.01,0-.01c.03-.05.07-.1.12-.13.05-.02.13-.02.19-.02h0s.1.01.12,0c.07-.05.15-.15.21-.21.6-.74,1.34-1.73,1.61-2.66.13-.39.33-.75.6-1.07.03-.03.12-.16.14-.21-.04-.04-.11-.06-.16-.07-.08-.02-.17-.04-.25-.02-.08.02-.15.07-.21.13-.07.07-.13.15-.16.25-.09.27-.31.65-.45.91-.1.17-.22.32-.36.46-.09.1-.25.26-.39.28-.16.02-.32-.02-.34-.21-.01-.16.08-.29.19-.38.26-.35.58-.84.67-1.27,0-.01,0-.02,0-.04-.06,0-.17.02-.21.03-.15.03-.29.01-.4-.1-.1-.09-.16-.21-.17-.35,0-.1.09-.21.16-.28.08-.09.18-.17.28-.22.19-.1.46-.41.61-.57.23-.25.46-.52.65-.81h0s0,0,0,0c.01-.01.04-.05.07-.08-.05.01-.11.03-.14.04-.17.06-.4.11-.57.03-.09-.02-.15-.09-.16-.18-.01-.08,0-.16.02-.23.02-.06.04-.11.07-.16v-.02s.03-.01.03-.01c.08-.05.2-.1.3-.13.15-.06.31-.11.46-.16.1-.03.22-.08.33-.1.21-.1.45-.15.69-.08.23.08.33.25.32.49h0s0,.01,0,.01c-.05.23-.8,1.02-.97,1.2-.05.05-.2.22-.22.28,0,.03.05.08.07.09.08.06.14.17.18.26.04.08.1.15.19.17.16.06.32.14.46.24.1.07.23.18.28.3.04.1.09.19.14.27h0Zm6.55.08c.14-.17.33-.13.49,0,.15.12.26.28.21.48-.02.15-.08.34-.23.41-.15.07-.37,0-.51-.06-.26-.08-.75-.09-1.03-.11-.21-.01-.79-.06-1-.01h0s0,0,0,0c-.27.02-.53.04-.8.07-.33.03-.67.06-1,.08-.29.02-.58.01-.87,0-.24-.02-.53-.05-.77-.15-.16-.09-.28-.21-.34-.39-.06-.17-.03-.34.07-.49.09-.15.18-.31.29-.45.06-.08.13-.17.2-.24.06-.06.12-.13.17-.2.08-.15.24-.35.34-.48.08-.1.26-.32.31-.43.12-.25.32-.34.58-.24.57.22-.06.87-.28,1.09-.09.09-.16.2-.22.31-.07.12-.15.24-.25.35-.09.11-.18.23-.21.37,0,.03-.04.16,0,.17.12.04.59.02.72.02.83-.05,1.66-.1,2.49-.11.45,0,.96-.02,1.41.04.08.01.2.03.27-.01h0Zm10.41-6.08c-.08.01-.15-.01-.18-.08-.02-.05-.03-.11-.02-.16,0-.01,0-.03,0-.05h0c-.19.04-.54.03-.73.03-.22,0-.58,0-.79-.06-.17-.05-.31-.15-.42-.27-.27-.26-.33-.53.13-.58.2-.02.4,0,.6.07.47.14,1.08.07,1.56-.02h0s0,0,0,0c.07,0,.24-.02.31,0,.07.02.13.08.17.13.09.09.14.2.1.32-.04.13-.21.29-.3.39-.09.08-.29.27-.41.28h0Zm-2.46,3.14c.07-.09.29-.22.38-.27.18-.11.38-.2.59-.26.79-.29,1.64-.62,2.38-1.03.07-.04.15-.08.22-.12.08-.05.16-.09.24-.14.09-.04.17-.1.26-.15.09-.06.18-.11.27-.17.08-.05.17-.11.25-.16.08-.05.16-.11.24-.17.06-.05.12-.1.18-.16.06-.05.11-.1.16-.15.04-.05.07-.09.09-.14v-.02s0-.02,0-.02c0-.14-.08-.24-.22-.26-.14-.03-.29.01-.42.07-.12.06-.23.13-.33.2-.1.06-.21.13-.31.19-.25.13-.49.28-.72.43-.26.16-.53.32-.8.45-.29.14-.6.25-.9.35-.17.08-.35.14-.52.21-.21.08-.43.17-.65.24-.19.06-.39.1-.58.14-.11.02-.37.06-.46.14-.09.08-.1.27-.11.37-.06.47-.53,4.19-.77,4.49h-.01s0,.03,0,.03c-.08.41-.3,1.43-.59,1.74-.08.07-.14.21-.19.31-.05.1-.1.22-.17.31-.1.15-.19.35-.12.52.07.15.19.23.34.27h.01s.01,0,.01,0c.13,0,.25-.12.34-.21.13-.14.24-.31.33-.48.13-.25.26-.5.36-.75.09-.22.15-.45.21-.68.06-.25.23-.83.23-1.08,0-.05,0-.12.04-.17h0s0-.02,0-.02c.24-.61.35-1.5.42-2.15.03-.32.15-1.42.31-1.7h0Zm5.92,2.66c.04-.08.08-1.33.08-1.43,0-.08,0-.47-.03-.59-.14-.01-.36.06-.47.1-.24.09-.47.18-.71.26-.23.08-.47.08-.7,0h0s0,0,0,0c-.35-.17-.24-.41.04-.58.2-.13.44-.2.67-.26.14-.02.27-.07.4-.13.13-.07.28-.12.42-.16.07-.02.24-.06.29-.13.05-.06.04-.24.04-.31-.02-.15-.01-.32.09-.45.08-.19.25-.24.45-.19.22.05.32.2.28.42,0,.12.04.12.15.07.22-.09.62-.25.86-.25.12,0,.22.03.28.14.06.1.05.22.01.32,0,.05-.02.11-.05.15-.04.06-.1.1-.16.12-.05.02-.09.05-.14.07-.05.03-.13.05-.18.07-.03.01-.11.04-.15.04-.12.03-.24.08-.35.14-.06.03-.17.1-.2.17-.04.09-.02.7-.02.81,0,.11-.04,1.49,0,1.63m0,0h0c-.04.08-.08.5-.09.59-.04.6-.08,1.19-.11,1.79l-.02.62-.18.18c-.07.06-.21.18-.31.16-.09-.01-.24-.11-.32-.16-.05-.03-.1-.05-.15-.08-.05-.03-.11-.06-.16-.09-.05-.03-.09-.06-.14-.09-.05-.03-.09-.07-.14-.1-.04-.03-.08-.07-.12-.1-.05-.04-.09-.09-.13-.14-.04-.05-.07-.11-.1-.16-.04-.06-.07-.12-.1-.19-.08-.16-.22-.45,0-.57.09-.05.17-.03.24.04.08.08.17.21.24.32.12.21.32.32.54.37.08-.42.12-.88.15-1.31.02-.25.07-.82.03-1.11m-4.67-.28s-.06.06-.09.09c-.06.06-.12.11-.19.16-.11.11-.36.34-.52.34s-.29-.06-.33-.23c-.04-.16.03-.31.13-.43.03-.05.11-.16.18-.19.17-.13.32-.34.43-.52.16-.25.33-.5.5-.74.15-.2.34-.39.58-.48h0s0,0,0,0c.08-.01.25-.03.32,0,.09.03.13.16.16.24.04.14-.12.33-.21.42-.03.05-.08.11-.12.15-.03.03-.06.06-.08.07,0,0,0,0,0,0,.01.03.04.07.06.1.08.09.1.19.08.31-.05.33-.25,1.6-.17,1.92.09.21.08.48.05.7-.03.21-.11.49-.36.51-.08.02-.17.03-.25,0-.07-.03-.12-.1-.15-.17-.07-.15-.08-.53-.08-.7-.01-.38,0-.77.03-1.15,0-.13.02-.25.02-.38,0,0,0,0,0-.01h0Zm16.72-4.98c.61-.11,1.23-.34,1.8-.57.42-.17.85-.35,1.27-.52h0s0,0,0,0c.19-.06.39-.16.56-.25.13-.08.35-.21.5-.22.15,0,.24.1.28.23.02.05.04.1.04.15,0,.08-.04.15-.09.2-.05.05-.09.1-.14.15-.06.06-.13.11-.2.15-.07.04-.13.08-.2.13-.06.04-.13.09-.2.13-.05.03-.11.06-.16.1-.14.1-.39.27-.55.12-.05-.03-.12,0-.16.02h0s0,0,0,0c-.44.13-.9.33-1.33.5-.48.2-1,.4-1.51.53-.23.06-.47.02-.44-.27.01-.23.12-.4.31-.52.06-.04.12-.07.19-.05h0Zm-3.13,9.45c.23-.1.55-.48.71-.66.11-.13.46-.54.46-.74.01-.05-.01-.1-.05-.13-.03-.03-.07-.04-.11-.05.05-.13.16-.34.2-.42.06-.13.2-.44.29-.54h0s0-.02,0-.02c.27-.55.49-1.21.69-1.79.27-.77.57-1.54.92-2.28.26-.54.61-1.09,1.08-1.47.19-.07.27-.21.19-.41-.08-.17-.21-.22-.36-.13-.18,0-.39.04-.53.14-.16.12-.32.37-.41.54-.04.07-.13.28-.18.33h0s-.01.02-.01.02c-.27.42-.49.88-.69,1.35-.25.59-.48,1.2-.69,1.81-.17.49-.35.99-.54,1.47-.14.18-.6,1.09-.66,1.19-.16.3-.32.61-.49.91-.05.09-.17.3-.24.38l-.02.02v.02c-.04.14-.02.28.06.41.1.16.25.16.4.08h0Zm5.04-4.57c.04-.18.08-.37.1-.55.03-.22.06-.44.08-.66.02-.18.03-.39-.01-.57-.01-.05-.04-.18-.11-.18-.1,0-.17-.07-.23-.15-.06-.08-.1-.18-.1-.28h0s0,0,0,0c.02-.15.21-.35.3-.45.06-.06.25-.25.29-.33.1-.17.32-.31.49-.41.18-.1.41-.2.62-.2.22-.02.44.04.42.3-.03.2-.16.32-.34.38-.03.01-.05.02-.08.02-.12.03-.22.12-.31.21h0s-.17.15-.17.15l.03.26s0,.1.02.16c.02-.03.03-.05.05-.07.17-.27.41-.43.73-.47.3-.04.56.06.73.31.16.2.16.52.14.77-.02.24-.07.56-.21.76h0s-.01.02-.01.02c0,0,0,.04,0,.05,0,.05.03.08.06.1.09.06.14.15.13.25,0,.12-.09.27-.14.37-.19.36-.3.78-.38,1.18-.06.25-.08.57-.1.83-.05.56-.08,1.13-.11,1.69-.01.22-.02.6-.07.8-.03.14-.15.29-.24.4-.2.19-.43.16-.66.03-.23-.13-.4-.31-.47-.57-.07-.23-.04-.45.12-.63h.01s.02-.02.02-.02c.1-.04.2.03.26.1.07.08.12.17.13.28,0,.02.02.1.04.1.04,0,.06-.01.07-.05.01-.09,0-.18,0-.27-.02-.12,0-.24.02-.35.06-.31.07-.71.09-1.02.02-.34.04-.69.08-1.04.01-.07.06-.38.06-.52-.06.04-.13.1-.16.12-.07.05-.22.18-.32.17-.08,0-.21-.1-.27-.15-.03-.02-.14-.1-.18-.1h0s-.01,0-.01,0c-.16,0-.28-.14-.35-.27-.09-.16-.12-.33-.04-.5h0Zm-.68,3.83c-.03.06-.06.12-.09.19-.05.12-.13.22-.22.31-.2.22-.51.45-.8.22-.39-.31.44-1.16.64-1.37h0s0,0,0,0c.22-.19.5-.58.67-.82.12-.17.47-.67.65-.78.26-.14.48-.06.67.15h0s0,0,0,0c.05.08.07.16.03.24-.05.09-.2.2-.27.26h0s0,0,0,0c-.14.09-.55.66-.65.8-.08.12-.46.67-.62.79h0Zm5.45-.87c-.06-.06-.12-.12-.17-.17-.19-.2-.39-.4-.58-.6-.07-.08-.15-.15-.22-.23-.04-.04-.11-.1-.08-.17.05-.16.2-.22.35-.22.18,0,.34.04.48.14.18.1.39.29.55.43.3.26.58.54.87.82.2.19.4.39.6.57.14.13.27.29.33.48l.11.35h-.09s-.06.06-.08.08c-.06.06-.13.12-.2.14-.07.03-.15,0-.22-.02-.1-.01-.25-.04-.33-.1-.09-.06-.15-.19-.2-.28-.11-.23-.29-.44-.46-.62-.14-.15-.35-.36-.54-.44l-.33-.15h.2Zm10.65-4.55c-.11.04-.35.17-.41.2l-.48.24-.48-.02c-.2,0-.57,0-.7-.18-.13-.18-.05-.56,0-.76.04-.17.08-.41.06-.59-.07-.19-.01-.34.16-.45.13-.08.29-.13.44-.06h0s0,.01,0,.01c.21.17.15.7.12.93,0,.06-.04.26-.04.37.38-.03,1.03-.46,1.31-.64l.11-.08.04-.87c.03-.45.07-.98.17-1.42.03-.14.11-.25.22-.34.15-.11.29-.08.41.05.07.05.13.12.14.2.01.1-.06.34-.09.45-.06.19-.07.54-.08.75,0,.08-.02.41,0,.53.07-.03.19-.14.22-.17.07-.06.26-.24.27-.34h0s0,0,0,0c.05-.19.17-.3.37-.3.19,0,.34.1.47.23h0s0,0,0,0c.07.09.14.23.08.35-.07.12-.38.36-.48.45-.03.03-.06.06-.1.08-.11.1-.24.19-.36.28-.09.07-.22.16-.31.25-.06.06-.13.17-.18.24-.08.12-.12.26-.13.4-.03.21-.03.44-.03.66,0,.26,0,.56-.03.83,0,.02-.01.08,0,.11.07,0,.25-.08.3-.1.16-.06.32-.13.46-.22.1-.07.21-.11.33-.11.12,0,.22.03.31.11.12.12.12.27.03.42-.09.15-.23.23-.39.26-.2.06-.43.18-.61.28-.17.09-.37.21-.53.33-.03.17-.04.4-.05.56-.02.28-.04.57-.04.85v.19c.11,0,.23,0,.34-.03.23-.12.86-.18,1.12-.21.37-.04.77-.08,1.13-.14.12-.04.33-.06.46-.07.33-.04.65-.06.98-.09.17-.01,1.22-.1,1.34-.18h0s0,0,0,0c.18-.07.37-.09.56-.02.23.08.26.28.19.49-.04.14-.11.28-.25.35-.16.08-.53.12-.71.14-.08.02-.24.03-.32.04-.25.02-.5.03-.74.05-.4.02-.85.04-1.24.1-.31.05-.63.08-.94.12-.35.04-.71.09-1.06.16-.29.06-.58.13-.86.22-.11.04-.23.23-.28.33h0s0,.01,0,.01c-.06.08-.15.1-.26.08-.11-.02-.2-.09-.28-.17h0s0-.02,0-.02c-.03-.06-.07-.09-.13-.1-.1-.01-.2,0-.3.02-.09.02-.21.04-.3.03-.36.04-.73.09-1.09.17-.14.03-.47.1-.61.02h0s0,0,0,0c-.08-.06-.1-.23-.11-.32-.01-.1-.02-.26.04-.35.06-.09.17-.14.28-.17.14-.03.29-.04.43-.05.11,0,.25-.02.36-.05.24-.06.52-.08.77-.09.12,0,.44,0,.54-.06.07-.05.08-.12.06-.2-.03-.16,0-.33.06-.49.06-.18.09-.42.1-.61l.02-.3s-.07.02-.09.02c-.1.02-.2.05-.3.07-.1.02-.21.04-.31.05-.1.01-.21.02-.31,0-.07,0-.15-.03-.19-.08-.08-.05-.08-.14-.02-.21.04-.06.1-.11.15-.15,0,0,.03-.02.04-.03,0-.07.05-.12.11-.15.08-.04.16-.08.24-.1.1-.04.2-.07.29-.11.1-.04.2-.07.29-.1.05-.02.1-.03.16-.05.04-.15.08-.76.09-.88,0-.11.05-.64.03-.82h0ZM3.49,54.52c.03-.07.06-.14.09-.2.04-.1.08-.2.12-.3.04-.11.08-.21.12-.32.04-.12.09-.24.11-.37.03-.12.05-.25.08-.37.02-.12.03-.25.03-.37,0-.12-.02-.23-.05-.34,0-.01-.01-.04-.02-.05-.03.03-.08.13-.09.16-.07.14-.15.28-.23.4-.09.14-.17.29-.24.43-.06.15-.15.31-.23.46-.07.12-.15.28-.2.4-.03.12-.12.22-.21.3-.06.05-.1.11-.13.18-.03.07-.06.14-.1.2h0s0,.01,0,.01c-.05.06-.2.23-.16.32.03.08.12.09.2.08.13,0,.25-.04.37-.1.08-.03.21-.15.27-.22.09-.09.19-.19.27-.3h0Zm36.73-5.32c.15-.04.3-.11.43-.2.04-.03.18-.14.17-.19h0s-.05-.02-.07-.02c-.09-.01-.22.08-.29.13-.1.08-.19.17-.25.29h0Zm-.47,1.85c.08-.05.23-.19.27-.23.05-.05.17-.15.21-.22,0,0,0-.01,0-.02-.14-.19-.02-.38.14-.51.03-.03.11-.1.16-.17-.13.08-.32.22-.37.25-.09.07-.18.12-.28.17-.03.02-.07.05-.08.08-.03.06-.04.27-.05.34,0,.03,0,.07,0,.1h0s0,0,0,0c0,.03-.01.12,0,.18Z"/>
        <path class="cls-1" d="m23.81,51.96s-.03-.08,0-.11c.02-.02.05-.04.08-.05,0,0,.02,0,.02-.01h0c-.07-.09-.14-.27-.19-.37-.05-.12-.14-.3-.16-.42-.02-.1,0-.19.04-.28.07-.2.2-.3.33-.07.06.1.09.21.11.32.04.28.22.57.38.8h0s0,0,0,0c.02.04.07.12.07.16,0,.04-.01.08-.03.12-.03.07-.07.12-.14.13-.08.01-.2-.04-.27-.07-.06-.02-.21-.08-.24-.15h0Z"/>
      </g>
    </g>
    <g>
      <path class="cls-2" d="m7.71,182.36c.26.06.54.15.83.25.29.1.58.21.88.32.3.11.6.22.91.33.31.11.62.2.92.28.08.02.15.04.21.05.06.01.13.03.2.04.08.04.13.08.17.14.04.06.06.12.06.19,0,.06-.01.12-.03.18-.02.06-.05.11-.1.15-.04.04-.1.08-.17.1-.07.03-.15.04-.25.04-.1,0-.22-.02-.36-.05-.29-.11-.57-.23-.85-.34-.28-.12-.55-.23-.82-.34-.27-.11-.53-.21-.79-.3-.26-.09-.52-.17-.77-.24-.02,0-.06-.02-.13-.04-.07-.02-.15-.04-.25-.05-.1-.02-.2-.04-.31-.05-.11-.01-.21-.02-.32-.02-.07,0-.14,0-.2.01-.06,0-.12.02-.16.04s-.08.05-.11.08c-.03.03-.04.08-.04.13,0,.11.06.25.17.4.11.16.27.33.47.52.2.19.43.38.69.57.26.2.55.39.85.57.3.19.61.36.93.52.32.16.63.29.94.4.06.03.09.06.11.1.02.04.02.09.02.15,0,.11-.03.21-.1.29-.07.08-.16.12-.26.12-.03,0-.05,0-.07,0-.02,0-.05-.01-.08-.03l-.18-.06c-.14-.05-.26-.09-.38-.13-.11-.04-.22-.08-.32-.1-.14-.04-.28-.07-.4-.09-.12-.02-.23-.04-.34-.05-.11-.01-.21-.02-.31-.03-.1,0-.2,0-.31,0-.04,0-.1,0-.18.01-.08,0-.16.02-.26.03-.09.01-.19.03-.29.06-.1.02-.19.05-.27.09-.08.03-.15.07-.2.12-.05.04-.08.1-.08.15,0,.09.04.18.11.28.07.1.18.2.3.3.13.1.28.2.45.31.17.1.36.2.56.3.2.1.41.19.62.28.21.09.43.17.64.24.21.07.41.14.61.2.2.06.37.1.54.14.15.03.3.06.45.08.14.02.29.05.43.07.15.02.29.05.44.08.15.03.3.06.45.1.06.01.11.04.17.06.06.03.11.06.16.11.05.04.09.09.12.14.03.05.05.1.05.15,0,.13-.04.22-.11.27-.07.05-.19.07-.35.07-.12,0-.26-.01-.43-.03-.16-.02-.33-.05-.51-.08s-.36-.07-.54-.11c-.18-.04-.35-.08-.52-.12-.33-.08-.67-.19-1.03-.32-.36-.13-.7-.28-1.04-.45-.34-.16-.66-.34-.95-.52-.3-.18-.55-.37-.77-.55-.08-.06-.15-.14-.23-.23-.08-.09-.15-.18-.21-.28-.06-.1-.12-.2-.16-.3-.04-.1-.06-.2-.06-.3,0-.2.06-.37.18-.5.12-.13.27-.25.47-.33.2-.09.42-.15.67-.2.25-.04.51-.08.78-.1-.24-.16-.46-.31-.64-.45-.19-.13-.36-.27-.52-.41-.12-.1-.25-.22-.38-.35-.14-.13-.27-.27-.38-.41-.12-.15-.21-.3-.29-.45-.08-.15-.11-.3-.11-.45,0-.17.03-.31.09-.43.06-.12.14-.21.25-.28.1-.07.23-.12.37-.15.14-.03.3-.05.46-.05.19,0,.39.02.59.05.2.03.41.07.61.12Z"/>
      <path class="cls-2" d="m7.43,190.31c.18.04.36.11.56.2.2.09.4.21.6.36.2.15.4.33.6.53.19.21.38.45.54.72.03.04.05.11.09.2.03.09.05.18.05.28.12.11.18.26.18.46,0,.23-.06.42-.17.57-.11.16-.27.28-.47.38-.06.03-.13.06-.19.09-.06.03-.13.05-.19.07-.07.02-.14.03-.22.05-.08.01-.17.02-.26.02-.23,0-.46-.04-.7-.11-.24-.07-.47-.17-.7-.31-.23-.13-.44-.29-.65-.49-.21-.19-.39-.4-.56-.63-.11-.16-.2-.33-.26-.52-.06-.19-.09-.4-.09-.64,0-.22.03-.42.09-.58.06-.16.14-.3.25-.41.11-.11.24-.19.4-.24.15-.05.32-.08.51-.08s.38.03.59.08Zm-.06.72c-.07-.02-.13-.03-.19-.04-.06,0-.12-.01-.17-.01-.1,0-.18.01-.27.04-.08.02-.15.06-.21.12-.06.05-.11.12-.14.21-.03.08-.05.18-.05.3,0,.22.06.42.17.62.11.19.25.36.42.51.17.15.35.27.54.37.19.1.37.17.53.21.1.03.2.05.29.07.09.02.17.03.25.03s.15-.01.21-.04c.07-.03.14-.06.22-.11.05-.03.1-.05.15-.08.05-.03.11-.05.16-.07-.04-.02-.08-.05-.11-.07-.03-.03-.06-.07-.08-.12-.02-.05-.05-.12-.07-.21-.02-.09-.04-.21-.05-.35-.03-.1-.08-.19-.15-.29-.07-.1-.15-.19-.23-.29-.09-.09-.19-.18-.29-.27-.1-.09-.21-.16-.32-.23-.11-.07-.21-.13-.32-.18-.1-.05-.2-.09-.29-.11Z"/>
      <path class="cls-2" d="m9.33,198.05c0-.1-.02-.21-.07-.33-.05-.12-.11-.24-.19-.36-.08-.12-.17-.25-.28-.38-.1-.13-.21-.26-.32-.38-.05-.06-.11-.12-.15-.18-.05-.06-.08-.12-.1-.17-.07-.04-.15-.08-.26-.13-.11-.04-.23-.09-.36-.13-.13-.04-.26-.09-.4-.12-.13-.04-.26-.07-.38-.1-.06-.01-.12-.03-.18-.04-.06,0-.12-.02-.18-.03-.07-.01-.14-.03-.21-.04-.08-.02-.16-.04-.25-.06-.05-.01-.1-.04-.13-.07-.03-.03-.06-.07-.08-.1s-.03-.07-.03-.1c0-.03,0-.06,0-.07,0-.11.03-.2.08-.27.05-.07.15-.1.3-.1.04,0,.08,0,.13,0,.04,0,.09.01.15.03.28.06.52.12.74.18.22.06.42.12.61.18.19.06.37.12.53.18.17.06.33.13.5.19.17.07.34.13.53.2.18.07.38.15.6.23.05.02.09.06.12.14.03.07.05.15.05.24,0,.11-.02.2-.07.27s-.12.11-.21.11c0,0-.02,0-.05,0-.02,0-.05-.01-.07-.03l-.45-.19c.1.12.19.25.29.38.1.13.18.27.26.41s.14.28.19.42c.05.14.07.28.07.42,0,.28-.07.5-.22.65-.15.16-.38.23-.69.23-.18,0-.38-.03-.61-.09-.23-.06-.47-.14-.74-.23-.26-.09-.54-.2-.83-.3-.29-.11-.58-.21-.88-.3-.08-.03-.15-.05-.2-.08-.05-.03-.1-.06-.13-.1-.03-.04-.06-.08-.07-.13-.01-.05-.02-.11-.02-.18,0-.11.02-.19.06-.23.04-.04.11-.07.2-.07.08,0,.18.01.3.04s.25.06.39.1c.14.04.29.1.45.16.16.06.32.12.49.19.13.05.27.11.4.16s.26.1.39.14.24.08.36.1c.11.03.22.04.31.04.09,0,.17-.02.24-.06.07-.04.1-.11.1-.22Z"/>
      <path class="cls-2" d="m7.25,199.84c.16.04.31.09.47.15.16.06.31.14.46.23.15.09.3.2.45.33.15.13.29.28.42.45.09.12.18.24.26.37.08.13.15.26.22.39.06.13.11.27.15.4.04.13.05.27.05.4,0,.1,0,.18-.02.25s-.04.14-.07.21c.1.03.37.11.82.23.44.13,1.06.28,1.85.46.08.03.14.08.2.13.05.06.08.13.08.21,0,.06,0,.11-.02.17-.01.05-.03.1-.06.15-.03.04-.07.08-.12.1-.05.03-.12.04-.2.04l-3.49-.87c-.1-.03-.23-.05-.4-.07s-.34-.04-.53-.07c-.19-.02-.37-.04-.55-.05-.18-.01-.34-.02-.47-.02-.16,0-.32-.02-.48-.06-.07-.02-.13-.04-.18-.05-.05-.02-.09-.04-.12-.08-.03-.03-.05-.07-.07-.12-.01-.05-.02-.11-.02-.18,0-.08,0-.15.03-.2.02-.05.04-.08.07-.1.03-.02.07-.04.1-.04.04,0,.08,0,.13,0,.04,0,.09,0,.14,0,.05,0,.09-.02.14-.04-.02-.03-.05-.08-.09-.14-.04-.06-.08-.12-.12-.18-.04-.06-.08-.12-.11-.18s-.06-.1-.07-.12c-.04-.07-.08-.14-.12-.23-.04-.08-.08-.17-.12-.27-.04-.1-.07-.2-.09-.3-.02-.11-.04-.21-.04-.32,0-.13.02-.26.07-.38.04-.12.11-.23.2-.33.09-.1.2-.17.34-.23.14-.06.3-.09.48-.09.07,0,.13,0,.2.01.07,0,.14.02.22.04Zm.03.75c-.09-.02-.17-.04-.25-.04s-.16,0-.24.02c-.07.01-.14.04-.19.08-.05.04-.1.09-.13.16s-.05.15-.05.25c0,.06,0,.12.03.19.02.07.05.13.08.2.03.07.06.13.1.18.03.06.06.11.09.15.07.11.14.21.21.31.07.09.15.18.23.25.08.08.17.14.27.2.1.06.22.1.35.14.12.03.22.05.32.08.1.02.19.04.28.06.09.02.18.03.28.05.1.01.2.03.32.04.02-.01.03-.03.05-.06.02-.02.02-.06.02-.11,0-.12-.02-.24-.06-.38-.04-.14-.09-.28-.17-.43-.07-.15-.16-.29-.26-.43-.1-.14-.22-.27-.35-.39s-.27-.23-.42-.32c-.15-.09-.32-.15-.49-.2Z"/>
      <path class="cls-2" d="m5.95,206.85c.08,0,.18,0,.3.03s.26.03.44.03c-.07-.1-.15-.2-.25-.32-.1-.12-.19-.24-.27-.36-.09-.12-.16-.25-.22-.37-.06-.12-.09-.24-.09-.34,0-.09.01-.17.04-.25.03-.08.06-.14.1-.2.12-.15.24-.26.37-.33s.26-.1.43-.1c.07,0,.15,0,.23.02.08.01.17.03.27.06.46.11.88.3,1.27.57.39.27.72.6,1,1,.11.15.18.31.21.46.03.15.05.31.05.46,0,.07,0,.14-.01.22,0,.08-.02.16-.03.22.01.07.02.12.03.16,0,.04,0,.09,0,.13,0,.09-.01.16-.03.22-.02.06-.05.1-.09.14-.04.04-.08.06-.13.08-.05.02-.1.02-.16.02-.08,0-.15-.01-.21-.03-.07-.02-.14-.05-.21-.07l-2.29-.57c-.12-.01-.24-.02-.34-.03-.1,0-.2-.03-.29-.05-.03,0-.06-.02-.1-.03-.04-.01-.08-.03-.11-.06-.04-.03-.07-.07-.09-.11-.03-.04-.04-.1-.04-.17,0-.09,0-.16.02-.21s.03-.09.05-.12c.02-.03.05-.05.08-.06.03,0,.07-.01.11-.01Zm1.31-1.44s-.1-.02-.17-.04c-.08-.01-.15-.02-.23-.02s-.15.01-.21.03c-.06.02-.09.07-.09.15,0,.12.03.24.08.34.05.11.12.21.19.3.1.12.22.25.34.38s.26.25.4.37c.14.11.28.22.43.3.15.09.29.15.44.19.08.02.18.04.29.06.11.02.21.02.3.02.04,0,.07,0,.11-.03.04-.02.05-.05.05-.1,0-.14-.03-.28-.08-.43-.06-.14-.13-.28-.22-.41-.09-.13-.2-.26-.33-.38-.13-.12-.26-.23-.4-.33-.14-.1-.29-.18-.44-.25-.15-.07-.3-.12-.45-.16Z"/>
      <path class="cls-2" d="m6.77,209.1c-.03.1-.08.2-.12.3-.05.1-.09.21-.13.32-.04.11-.08.22-.11.34-.03.12-.04.25-.04.38,0,.16.02.32.06.48s.09.32.17.48c.07.16.16.3.27.45.11.14.23.27.37.39.15.13.28.24.4.33.12.09.23.16.32.21.09.05.18.09.24.12.07.02.13.04.18.04.07,0,.14-.02.19-.07.05-.05.1-.12.13-.2.04-.08.06-.18.08-.28s.02-.21.02-.33c0-.07,0-.14,0-.23,0-.09,0-.18-.01-.27,0-.09,0-.18-.01-.27,0-.09,0-.16,0-.23,0-.1.01-.19.03-.3.02-.1.06-.2.11-.3.05-.1.12-.19.2-.27s.19-.15.31-.21c.04-.02.09-.03.14-.05.06-.01.11-.02.18-.02.07,0,.14,0,.2.02.06,0,.12.02.18.04.14.04.29.11.44.2.15.09.29.21.44.34.14.13.28.28.41.43.13.16.26.31.38.48.12.16.22.33.32.48.09.16.17.3.24.44.09.19.16.39.2.58.04.2.06.4.06.59,0,.12-.02.23-.05.33-.03.1-.07.2-.13.28-.06.08-.13.14-.21.19-.09.05-.18.07-.29.07-.06,0-.12,0-.16-.02-.04-.01-.08-.03-.11-.06-.03-.02-.05-.05-.06-.08-.01-.03-.02-.06-.02-.08,0-.08,0-.15.03-.21.02-.07.04-.13.06-.19.02-.06.04-.12.06-.18.02-.06.03-.13.03-.2,0-.21-.04-.43-.13-.65-.09-.22-.19-.44-.33-.65-.13-.21-.28-.41-.44-.6-.16-.19-.32-.35-.47-.5-.08-.08-.16-.13-.24-.17-.08-.04-.16-.05-.23-.05-.11,0-.19.05-.25.14-.06.09-.09.21-.09.34,0,.08,0,.17,0,.26s0,.2.01.3c0,.1,0,.2.01.3,0,.1,0,.18,0,.26,0,.18-.03.35-.08.52-.05.17-.13.31-.22.44-.1.13-.22.23-.37.31-.15.08-.31.12-.5.12-.12,0-.23-.02-.35-.05-.12-.03-.24-.08-.36-.14-.12-.06-.24-.13-.36-.21-.12-.08-.23-.16-.35-.25-.2-.16-.39-.33-.57-.52-.18-.19-.34-.4-.47-.62-.13-.22-.24-.45-.32-.69-.08-.24-.12-.49-.12-.75,0-.11.01-.22.03-.34.02-.12.05-.23.09-.34.04-.11.09-.22.15-.32.06-.1.13-.19.2-.26.08-.08.16-.14.25-.18.09-.05.19-.07.3-.07.05,0,.1,0,.15.02.05.02.07.06.07.12Z"/>
      <path class="cls-2" d="m4.15,214.12c.23.06.45.11.65.15.2.04.38.09.55.12.17.04.34.07.5.11.16.03.32.07.49.1s.33.07.51.1c.18.04.37.08.58.12l1.01.21c.17.04.32.06.44.07.12.01.24.02.34.02.11,0,.21,0,.29,0,.09,0,.16.02.22.05.06.03.1.06.13.12.03.05.05.12.05.21,0,.13-.02.23-.05.3-.04.07-.08.13-.14.16-.06.04-.12.06-.2.06-.08,0-.15.01-.23.01.07.1.13.21.19.34.06.13.1.27.14.41.04.14.06.29.08.43.02.15.03.28.03.41,0,.21-.04.39-.11.55-.07.16-.17.29-.3.39-.12.1-.26.18-.43.23-.16.05-.33.08-.5.08-.2,0-.39-.03-.56-.1-.18-.06-.34-.15-.5-.26-.15-.11-.3-.24-.43-.38-.13-.15-.25-.3-.36-.47-.11-.17-.21-.34-.3-.53-.09-.18-.17-.36-.25-.54-.05-.12-.09-.23-.11-.34-.02-.11-.04-.2-.04-.29,0-.12.01-.23.04-.34.03-.11.07-.22.13-.32-.2-.06-.39-.11-.57-.15-.18-.04-.34-.07-.48-.09-.09-.01-.18-.03-.27-.05s-.19-.04-.28-.06c-.09-.02-.18-.04-.26-.06-.08-.02-.15-.03-.21-.05-.03,0-.06-.03-.09-.06-.02-.03-.04-.07-.06-.12-.02-.05-.03-.09-.03-.14,0-.05-.01-.09-.01-.13,0-.21.08-.32.25-.32.05,0,.1,0,.15.02Zm2.52,1.35s-.01.09-.02.14c0,.05-.02.1-.03.14,0,.05-.02.09-.02.12,0,.03-.01.06-.01.07,0,.05,0,.12.02.18.01.07.03.14.06.2.02.07.05.13.08.2.03.06.05.12.08.17.07.14.16.29.26.45.1.16.22.31.35.45.13.14.28.25.45.34.17.09.35.13.55.13.08,0,.16-.01.23-.03.07-.02.13-.05.18-.09.05-.04.09-.09.12-.16.03-.07.05-.14.05-.23,0-.1,0-.19-.02-.28-.01-.09-.03-.17-.06-.26-.03-.08-.07-.17-.11-.25-.04-.08-.1-.17-.16-.26-.07-.08-.13-.17-.18-.27-.05-.1-.08-.21-.1-.33l-1.71-.44Z"/>
      <path class="cls-2" d="m6.56,219.52c.17.04.36.1.59.16.22.06.46.13.71.19.25.07.5.14.76.21s.51.13.76.2c.01,0,.03.01.06.03.03.02.06.04.08.07.03.03.05.07.07.12.02.05.03.11.03.17,0,.05,0,.1-.02.14-.01.05-.03.09-.05.12-.02.04-.05.07-.08.09-.03.02-.07.03-.11.03h-.03s-.02,0-.03,0l-.46-.12c-.52-.14-1.03-.27-1.55-.42-.52-.14-1.04-.28-1.56-.41-.02,0-.04-.01-.07-.03-.03-.01-.05-.03-.08-.05-.03-.02-.05-.05-.07-.07-.02-.03-.03-.06-.03-.1,0-.08.02-.14.05-.2.03-.06.07-.11.12-.15.05-.04.1-.07.15-.09.05-.02.11-.03.16-.03h.04s.02,0,.04,0l.51.13Zm4.5,1.13c.06.01.13.04.22.08.09.04.17.1.23.2.03.05.05.1.07.17.02.07.03.11.03.14s-.01.06-.03.09c-.02.03-.04.06-.06.08-.03.03-.06.06-.1.08,0,.07-.03.12-.08.14-.05.02-.1.03-.16.03-.05,0-.09,0-.13-.01-.04,0-.07-.02-.09-.02-.06-.02-.12-.05-.17-.1-.05-.05-.09-.11-.13-.17-.04-.06-.06-.13-.08-.2-.02-.07-.03-.13-.03-.18,0-.07.01-.12.03-.15.02-.04.07-.08.15-.14.04-.03.08-.05.1-.05s.05,0,.06,0c.03,0,.06,0,.08,0,.02,0,.05,0,.07.02Z"/>
      <path class="cls-2" d="m6.21,221.86c.2.04.43.08.67.13.24.05.49.1.74.15.25.05.49.1.73.15.24.05.46.09.66.13.03,0,.05,0,.08,0h.07c.09,0,.18,0,.27.02.09.01.17.03.25.05.11.03.19.07.22.11.04.04.06.1.06.19s-.02.15-.05.2c-.03.05-.08.09-.13.12-.06.03-.12.05-.19.06s-.14.01-.22.01c-.04,0-.09,0-.13,0-.05,0-.09,0-.12,0,.08.08.17.17.26.26.09.09.17.19.24.29.07.1.13.21.18.33.05.11.07.23.07.36,0,.05,0,.1-.01.15,0,.05-.02.1-.03.15-.01.06-.03.12-.06.18s-.06.12-.1.18c-.07.1-.16.18-.27.24-.11.06-.22.1-.33.1-.04,0-.09,0-.14-.03-.05-.02-.1-.04-.14-.07s-.08-.07-.1-.11c-.03-.04-.04-.09-.04-.13s.01-.11.04-.18c.02-.07.06-.13.1-.18.02-.02.04-.04.07-.06.03-.02.06-.04.1-.06.03-.02.06-.04.09-.05.03-.02.05-.03.05-.04,0-.01,0-.03,0-.05s0-.03,0-.05c0-.15-.04-.29-.11-.42-.08-.13-.17-.26-.28-.37-.11-.12-.22-.22-.35-.32-.12-.1-.23-.18-.33-.25-.23-.06-.48-.12-.75-.19-.27-.07-.54-.14-.83-.21h-.11c-.09,0-.18,0-.27,0-.09,0-.17-.02-.24-.05-.04-.03-.08-.08-.11-.14-.03-.06-.05-.13-.05-.21,0-.12.04-.21.12-.27.08-.06.17-.09.28-.09.05,0,.1,0,.15.02Z"/>
      <path class="cls-2" d="m6.56,225.56c.17.04.36.1.59.16.22.06.46.13.71.19.25.07.5.14.76.21.26.07.51.13.76.2.01,0,.03.01.06.03.03.02.06.04.08.07.03.03.05.07.07.12.02.05.03.11.03.17,0,.05,0,.1-.02.14-.01.05-.03.09-.05.12-.02.04-.05.07-.08.09-.03.02-.07.03-.11.03h-.03s-.02,0-.03,0l-.46-.12c-.52-.14-1.03-.27-1.55-.42-.52-.14-1.04-.28-1.56-.41-.02,0-.04-.01-.07-.03-.03-.01-.05-.03-.08-.05-.03-.02-.05-.04-.07-.07-.02-.03-.03-.06-.03-.1,0-.08.02-.14.05-.2.03-.06.07-.11.12-.15.05-.04.1-.07.15-.09.05-.02.11-.03.16-.03h.04s.02,0,.04,0l.51.13Zm4.5,1.13c.06.01.13.04.22.08.09.04.17.1.23.2.03.05.05.1.07.17.02.07.03.11.03.14s-.01.06-.03.09c-.02.03-.04.06-.06.08-.03.03-.06.06-.1.08,0,.07-.03.12-.08.14-.05.02-.1.03-.16.03-.05,0-.09,0-.13-.01-.04,0-.07-.02-.09-.02-.06-.02-.12-.05-.17-.1-.05-.05-.09-.11-.13-.17-.04-.06-.06-.13-.08-.2-.02-.07-.03-.13-.03-.18,0-.07.01-.12.03-.15.02-.04.07-.08.15-.14.04-.03.08-.05.1-.05s.05,0,.06,0c.03,0,.06,0,.08,0,.02,0,.05,0,.07.02Z"/>
      <path class="cls-2" d="m7.11,228.44c.24,0,.5.03.76.08s.51.11.75.17c0-.08.01-.15.03-.23.02-.08.05-.15.08-.21.03-.06.08-.12.13-.16.05-.04.11-.06.18-.06.03,0,.06,0,.1.02.04.01.08.03.12.05.04.02.07.05.1.08.03.04.04.07.04.12v.58c0,.05.02.09.07.11.05.02.1.04.14.05.17.04.31.07.44.11.12.03.23.06.31.08.09.02.15.04.21.05.05.01.1.02.13.02.04,0,.07,0,.11,0,.03,0,.08,0,.14,0h.04s.05,0,.09,0c.04,0,.09.02.16.04.06.02.11.05.16.1.05.05.07.11.07.2,0,.08-.02.14-.05.2-.03.05-.07.1-.13.13-.05.03-.11.06-.18.08-.07.02-.13.03-.2.03-.07,0-.14,0-.2-.02l-1.22-.32c.03.16.05.3.07.42.02.12.05.24.07.37.03.13.05.25.07.35.02.1.04.18.06.25s.03.13.04.18c.01.05.02.09.02.12,0,.05,0,.09-.01.14,0,.05-.02.09-.04.13-.02.04-.04.07-.07.09-.03.02-.07.04-.13.04-.07,0-.13-.01-.18-.04-.05-.03-.1-.06-.14-.11-.04-.04-.07-.09-.1-.15-.02-.05-.04-.11-.05-.17,0-.05-.02-.11-.04-.18-.02-.07-.04-.16-.06-.24-.02-.09-.04-.18-.06-.28-.02-.1-.05-.19-.07-.28-.03-.13-.06-.25-.09-.34-.02-.09-.04-.17-.05-.24-.01-.07-.02-.12-.03-.16s0-.08,0-.1c-.16-.05-.33-.1-.49-.14-.16-.04-.31-.07-.45-.1-.14-.03-.26-.05-.37-.06-.11-.01-.19-.02-.25-.02-.08,0-.15,0-.22.02-.07.01-.13.04-.18.07-.05.04-.09.08-.12.14-.03.06-.05.13-.05.22,0,.15.04.3.13.45s.19.29.32.42c.13.13.27.26.42.38.15.12.3.23.44.33.05.03.08.08.08.13,0,.02,0,.04,0,.06,0,.03-.02.05-.03.07-.01.02-.03.04-.06.06-.02.02-.05.02-.08.02-.02,0-.04,0-.05,0-.18-.05-.36-.12-.54-.21-.18-.1-.36-.2-.55-.3-.06-.04-.13-.08-.19-.14-.06-.06-.12-.12-.18-.18-.06-.07-.11-.14-.16-.21-.05-.07-.1-.14-.14-.2-.07-.11-.12-.23-.14-.36-.03-.13-.04-.26-.04-.38,0-.19.03-.36.1-.5.07-.15.16-.27.28-.37.12-.1.25-.18.41-.23.16-.05.32-.08.5-.08Z"/>
    </g>
    <g>
      <path class="cls-2" d="m96,13.03l.09.09.43.52c-.87,1.22-3.33,2.46-7.38,3.73.61,0,.66,1.07.17,3.21l-.26,2.99c1.45-.84,3.39-1.42,5.82-1.74h.48c1.71-.23,2.59,1.84,2.65,6.21l-.09,9.07.09,1.82-.09.22c.46,1.01.22,2.92-.74,5.73-.2.49-.51.74-.91.74-.61,0-.94-.12-1-.35-.2-.2.07-.61.82-1.22l.26-1.3c-1.45.98-3.49,1.63-6.12,1.95l-3.17.09c-.43,0-.71-.33-.82-1v-.09c.49.06.65-.82.48-2.65v-1.17c.23-1.59.38-7.33.43-17.23.29-.72.46-2.24.52-4.56v-.17l-2.6.56c-.61-.26-.85-.51-.74-.74v-.56c-.17-.43.71-.77,2.65-1,2.95-.78,5.96-1.84,9.03-3.17Zm.26,21.39c-1.88,1.56-4.28,2.78-7.2,3.65-.84-.43-1.2.35-1.08,2.34l-.09,2.26.91.3c0-.15,1.5-.39,4.51-.74,1.04-.17,2.08-.59,3.12-1.26l-.09-6.47-.09-.09Zm-2.08-10.94c-1.1.17-2.86.81-5.29,1.91l-.17,4.9.17.3c.12.17.84-.13,2.17-.91l3.47-1.39,1-.09.17.26.17.56c.14.29-2.16,1.53-6.9,3.73-.43-.17-.62.38-.56,1.65l-.09,1.35.22.3c1.33,0,3.69-.93,7.07-2.78l.39.09c.4.09.58-.39.52-1.43l-.43-7.38-.87-1.08h-1.04Z"/>
      <path class="cls-2" d="m80.86,60.98l.74.65-.09.69,1.08-.52h.56c2.29,1.71,1.82,8.32-1.39,19.83l-1.52,1.48-.56.17-.65-.48c1.48-1.13,2.36-3.65,2.65-7.55-1.1.98-2.65,1.78-4.64,2.39l-.43.09c-.67-.26-.94-.51-.82-.74l.09-.52c-.17-.43.91-.95,3.25-1.56l2.99-1.48c.38-1.1.56-2.29.56-3.56l-3.65,1.13-.26.26h-.35l-.65-.52v-.87c-.17-.52.82-.94,2.99-1.26l1.91.09c.43-.96.35-2.56-.26-4.82l-.26.09-2.21,1.65h-.52l-.56-.65c-.17-.12.01-.69.56-1.74l.52-1.69c.17-.32.48-.51.91-.56Zm-4.17,22.7h.82c.35-.14.61.45.78,1.78l2.3,5.38.17.91-.52.61h-.22c-1.62-1.97-2.89-4.48-3.82-7.55v-.52l.48-.61Zm7.9,2h.39c1.22.52,2.76,2.4,4.64,5.64l-.56.78c-1.1-.17-2.4-1.39-3.91-3.65l-1.22-1.26-.09-.82.74-.69Zm9.2-23.22c.72-.38,1.08.41,1.08,2.34l.09.26,3.91-1.26.39.26v.22c-.67,1.01-2.16,2.04-4.47,3.08l-.35,3.39.91-.22c1.88,1.36,4.12,3.85,6.73,7.46l.26,1.3-.43.74h-.35c.12-.26-1.17-1.66-3.86-4.21l-3.17-3.38-.26-.26c-.49,2.6-1.4,5.12-2.73,7.55l-1.3,1.26h-.26l-.39-.52c1.53-1.82,2.63-5.95,3.3-12.37l-4.64,1.52-.74-.52v-.82c-.23-.49.95-1.01,3.56-1.56l1.91-.74c.23,0,.26-.81.09-2.43v-.39l.74-.69Zm-1,22.18h.52c1.27.55,2.92,2.2,4.95,4.95v.26l-.65.61c-.38.38-2.2-1.1-5.47-4.43v-.91l.65-.48Zm4.9-26.38l.56.09c.35-.29,1.4.59,3.17,2.65.32.32.17.65-.43,1l-3.3-1.74-.52-.61v-.74l.52-.65Zm3.39,25.78h.65c1.74.52,3.34,2.07,4.82,4.64l-.22.82h-.52l-4.38-3.39c-.35.06-.65-.22-.91-.82-.06-.55.13-.97.56-1.26Z"/>
      <path class="cls-2" d="m83.59,105.54c.32-.06.54.72.65,2.34.49.32,1.32.14,2.47-.52l.69.17v.48c.23.35-.35.71-1.74,1.09l-1.17.82.17,2.34.22.17,2.43-1.43.43.35c.26.72-.74,1.66-2.99,2.82-.23-.06-.56.82-1,2.65v.56c.49,0,2.65-.82,6.47-2.47l.48.26v.39c-.98,1.56-4.99,3.38-12.02,5.47l-1.26.26c-.64.35-1.65.58-3.04.69-.41-.06-.68-.35-.82-.87-.23-.61,1.08-1.16,3.95-1.65l4.51-1.39.09-.35c.38-.38.56-1.17.56-2.39v-.09l-2.99.74c-.32-.06-.59-.33-.82-.82v-.35c-.17-.43.74-.77,2.73-1l1.56-.65-.09-2-.3-.82-2.26.26-.39-.43-.17-.48-.09-.35c0-.32.94-.62,2.82-.91.38,0,.4-.58.09-1.74l-.09-.43.91-.74Zm1.17,14.67h.91c1.33.06,2.18,1.75,2.56,5.08l.3.26c-.32.06-.39,1.3-.22,3.73l.09,7.29-.09.83c-.06.84-.72,1.29-2,1.34-.84-.12-1.45-.59-1.82-1.43l.17-.3,2.04.3c.35-.12.49-.42.43-.91l-.17-.91c.17-.32.12-1.2-.17-2.65-1.16,1.1-2.53,1.85-4.12,2.26l-.56-1.04c-.17-.32.38-.72,1.65-1.21.98-.35,2-1.04,3.04-2.08.23,0,.26-.36.09-1.09v-.56l-.17-1.74-4.56,2.39-.3,2.91c-.23,1.45-.38,3.21-.43,5.3l-.26.26h-.48c-.23,0-.32-.36-.26-1.09l-.17-.56.52-8.29c-.12-.78-.03-1.84.26-3.17.2,0,.27-.58.22-1.74l.26-2.17.61-.48c.32.43,1.2.26,2.65-.52Zm-.17,1.61c-1.62.2-2.29,1.39-2,3.56l-.26,1.39.17.69c1.16-.17,2.56-.81,4.21-1.91.12-.72-.1-1.78-.65-3.17l-.56-.56h-.91Zm18.57-19.09h.56l.26.35c0,.78-1.63,1.78-4.9,2.99l.74,2.21c.35.61.58,1.45.69,2.52l.09.3-.52.74c-.23.06-.64-.58-1.22-1.91l-.17-.65c0-.43-.48-1.32-1.43-2.65l-2.39.82c-.17.06-.09.75.26,2.08,0,.61.49,2.01,1.48,4.21l.26.35-.43.74-.17.09c-1.16-.9-2.2-3.08-3.12-6.55l-1.35-1.26c.06-.49,1.06-.95,2.99-1.39l1.21-.35c.17.29.71.13,1.61-.48,1.65-.29,3.5-1.01,5.55-2.17Zm1,2.56c.38-.03.65.28.82.91.06.67-.22,1.59-.82,2.78-.23,1.21-1.42,3.34-3.56,6.38l-1.17,1.48,2-.35c1.1-.26,2.53-.33,4.3-.22.72.12,1.11.82,1.17,2.13l-.26,1,.17.17c.38,0,.85-.25,1.43-.74h.3l.39.3v.52c.23.43-.35.9-1.74,1.39-1.42.69-2.63,1.87-3.64,3.52l.26.3,1.74-.95.43.13v.43c.23.55-.93,1.55-3.47,2.99l-1.35.82c-.23.55-.35,1.92-.35,4.12l-.04,2.6c-.12.06-.12.58,0,1.56v.74l-.26,2.91c-.52,1.1-1.52.93-2.99-.52v-.17l.3-.22,1.17.09c.17.14.23-.16.17-.91v-1.43c.17,0,.23-1.37.17-4.12v-3.56l-3.99,1.21c-.32-.12-.54-.36-.65-.74v-.48c0-.4.82-.82,2.47-1.26l2.17-.91v-2.17l-.17-.17-6.47,2.6c-.29-.29-.43-.58-.43-.87.64-.98,2-1.72,4.08-2.21.23-.32,1.17-.74,2.82-1.26.49-.06.49-1.04,0-2.95-.06-.78-.19-1.17-.39-1.17l-4.17,1.3h-.43l-.39-.56c0-.78,1.19-1.5,3.56-2.17l.35-.26c2.2-1.91,4.09-5.32,5.68-10.24-.14-1.07.12-1.66.78-1.78Zm1.04,12.37l-4.12.61-.3.74.04,1.39.17.82-.09,1h.35l3.65-1.65c.32,0,.65-.66,1-2-.17-.61-.41-.91-.69-.91Zm-2.86,5.9c-.78,0-1.2.38-1.26,1.13v.61l.17.17,1.26-1.26.17-.65h-.35Z"/>
      <path class="cls-2" d="m73.61,173.62c.72-.32,1.2.54,1.43,2.56l.09.26,3.12-.95.82-.09h.52l1.82.39c.32.32.42.74.3,1.26-.09,1.27-1.82,3.01-5.21,5.21.17.35-.16.71-1,1.09l-.65-.82-.43-2.34c-.38.06-.62-.25-.74-.91.38-.14.07-1.82-.91-5.03,0-.23.27-.43.82-.61Zm6.47-5.95h1.17l.35.26v.39c-2,1.65-4.51,2.92-7.55,3.82h-.35c-.43-.26-.62-.62-.56-1.08-.17-.38.49-.74,2-1.09l4.95-2.3Zm-.56-5.16h1l.39.26v.48c.17.35-.35.69-1.56,1.04l-3.73,1.65-1.39.22-.52-.56v-.82c-.06-.23.36-.42,1.26-.56.12.15,1.19-.25,3.21-1.17l1.35-.52Zm1.08-4.47c.49-.12.85.03,1.08.43.38.61-.46,1.1-2.52,1.48l-2.99.82h-1.48l-.48-.65v-.61c-.12-.55.96-.83,3.21-.83.9-.32,1.95-.53,3.17-.65Zm-2.17,19.01c-1.04.17-1.95.61-2.73,1.3l.74,2.34h.09c1.33-.95,2.46-2.11,3.38-3.47l-.13-.17h-1.35Zm-.65-25.21c.12-.23,1.06.04,2.82.83,1.04.23,1.89.72,2.56,1.47l.09.43-.35.48c-.12.23-.81.01-2.08-.65l-3.3-.82c-.38-.38-.49-.74-.35-1.09l.61-.65Zm19.57.39h.82l.48.43-.74,2.82v.17l5.73-1.69.74.26v.43c-.12.55-.56.91-1.35,1.09l-4.6,1.56-.09.09c.55.32,1.35.98,2.39,2,.38.43.62,1.14.74,2.13-.06.46-.33.77-.82.91-1.53.35-3.2-.09-4.99-1.3-1.27,2.81-2.89,5.63-4.86,8.46.26-.12.66.61,1.21,2.17,2-2.4,5.67-3.63,11.02-3.69l2.43.43c.67.43.91.96.74,1.56-.49,2.92-2.26,6.08-5.29,9.46.06.38,1.27.51,3.65.39l7.68.09.43.52c-.12.72-.46,1.09-1.04,1.09-4.77-.55-11.95-.09-21.52,1.39l-2.21.74-.65-.74v-.56c.81-.98,3.59-1.74,8.33-2.26l.35-.26c-.81,0-1.14-2.1-1-6.29l-.48-1.82-.09.09-1.39,1.52-.43.48.91,3.47.74,1.34c-1.45,1.21-2.55-.23-3.3-4.34l-1.17-3.12-.09.09-3.25,4.3-.65.17-.09-.65c.23-.78,1.32-2.47,3.25-5.08,1.88-2.69,3.7-6.09,5.47-10.2-.72-.93-1.3-2.14-1.74-3.65.26-.38.59-.59,1-.65.49-.12,1.04.59,1.65,2.13.43-.55,1.13-2.37,2.08-5.47Zm-10.2,2.34h.48c1.21,1.16,1.76,3.62,1.65,7.38l-.13,1-.09,1.35-.61.39c-.43-.12-.68-.42-.74-.91.55-1.76.16-4.67-1.17-8.72l.61-.48Zm12.41,15.49l-3.04.74-.26.17c.55,1.77.71,4.43.48,7.99l.17.09c2.23-1.62,3.28-4.4,3.17-8.33l-.26-.65h-.26Zm-2.73-11.59l-.3.65c.69.9,1.76,1.45,3.21,1.65v-.26c-.06-.66-1.03-1.35-2.91-2.04Zm5.81,11.11l-.82.3c.38,3.99-.81,7.33-3.56,10.02l.39.09c-.2-.32.19-.69,1.17-1.13,1.56-1.01,3.14-3.95,4.73-8.81,0-.14-.64-.3-1.91-.48Z"/>
    </g>
    <line class="cls-4" x1="9.16" y1="70.12" x2="9.16" y2="173.73"/>
  </g>
  <g>
    <path class="cls-2" d="m147.48,44h-1.85V0h1.85v44Z"/>
    <path class="cls-2" d="m143.37,64.86h.64l.52.64c-.89,4.7-4.4,10.36-10.53,16.97-.32.34-.64.46-.99.34l-.3-.26c-.23-.17.37-1.02,1.8-2.54,3.38-3.41,6.23-8.42,8.55-15.04l.3-.13Zm5.67-8.47h.56c.4.2.6.42.6.65l-.09,1.16.17.3,4.64-1.63c.4.17.57.37.52.6,0,.69-1.81,1.6-5.41,2.75-.06,1.06-.44,2.41-1.16,4.04l-.73,1.07-.43.17c1.86,1.4,5.94,3.81,12.25,7.22l.39.26v.64l-.39.34c-4.81-1.72-9.63-4.14-14.44-7.26-.29-.14-.43-.52-.43-1.12.23-.49.59-.73,1.07-.73l.9.3c.6-.72.96-2.11,1.07-4.17l-.17-.17c-.66.37-3.28,1.06-7.86,2.06l.21,3.52.52,1.46v.26l-.34.34h-.39c-.46.09-.99-.96-1.59-3.14l-.39-2.36-3.05.47c-.23,0-.44-.21-.64-.64v-.6c-.06-.37.6-.62,1.98-.73l1.72-.39-.09-1.16c.11-.34.36-.56.73-.64h.43c.31.14.53.69.64,1.63.77.06,2.79-.33,6.06-1.16l2.49-.82.17-2.15.47-.39Zm-.43,15.86c.6-.06.96.92,1.07,2.92l.17.34,4.68-2.32.47.69c-.63,1.2-2.29,2.32-4.98,3.35l-.09,5.07c.17.77,0,2.95-.52,6.53.11,1.09-.43,1.95-1.63,2.58-2.06.11-4.47-1.12-7.22-3.7l.43,1.89-.34.52h-.43c-.6.29-1.27-.92-2.02-3.61l-.43-1.16c.06-.54.36-.87.9-.99h.34c.37-.26.8.43,1.29,2.06.4,1.03,2.55,2.21,6.45,3.52h.56c.77-1.03,1.1-4.91.99-11.64l-.26-.26c-2.69,1.26-5.49,2.08-8.38,2.45h-.34c-.43-.31-.64-.6-.64-.86v-.26c.23-.83.92-1.19,2.06-1.07.54.32,2.98-.43,7.3-2.23l-.34-3.09c.29-.46.59-.7.9-.73Zm6.1,9.97c1.2.52,2.82,2.28,4.86,5.29.31.49.41.84.3,1.07l-.21.39h-.43c-.46-.03-2.08-1.69-4.86-4.98-.37-.6-.5-.96-.39-1.07.2-.34.44-.57.73-.69Z"/>
    <path class="cls-2" d="m133.79,117.64h.39c.43-.09.62.69.56,2.32l.26.73,2.96-1.16.39-.3h.34l.52.47c.2.52-.85,1.26-3.14,2.23-.66.29-.96.47-.9.56.43.95.43,3.71,0,8.29l-1.07,2.71c.11.17,1.53-.56,4.25-2.19l.69-.17.26.17v.39c-2.87,2.89-6.16,4.73-9.88,5.5-.49-.26-.7-.62-.64-1.07,0-.54.82-.95,2.45-1.2,3.01-2.81,3.78-6.73,2.32-11.77l-2.96.77c-.32-.11-.53-.34-.64-.69v-.73c-.11-.43.82-.73,2.79-.9l.64-.39-.43-2.96c.17-.49.46-.69.86-.6Zm13.11-11.39l3.7.73.64.56c.23,1.06-.34,2.32-1.72,3.78-.2.23-.3.95-.3,2.15v2.79l-.09.26v.26l.21.13c.89-.31,1.8-1.55,2.75-3.7.2-.31.2-1.07,0-2.28l.56-.52h.64c.52.29.69,1.03.52,2.23-.34,1.86-1.27,3.52-2.79,4.98.14.23,2.58-.47,7.31-2.11l1.8-.34.56.52v.39c.06.29-.82.59-2.62.9l-5.41,1.98-6.14,1.8c-.66.29-.99.47-.99.56-.29.29-1.66.7-4.12,1.25-.32-.06-.53-.3-.64-.73v-.34c-.17-.49,2.09-1.49,6.79-3.01l.52-.43c-.43-.37-.57-1.43-.43-3.18l-.09-2.06-.13-.09c-.77.6-1.65.99-2.62,1.16l-.6-.52v-.56c-.11-.23.46-.59,1.72-1.07.83-.34,1.93-1.22,3.31-2.62l.39-.6c-.17-.26-.69-.39-1.55-.39l-1.72-.26c-.23-.23-.32-.56-.26-.99.06-.26.33-.47.82-.64Zm.17,16.11h.47c.46.14.69.66.69,1.55.86-.46,2.21-.82,4.04-1.07h1.29c.77.06,1.68.39,2.71.99.72.66.96,1.35.73,2.06.17.37-.54,1.79-2.15,4.25.4.49-.33,1.42-2.19,2.79.83-.23,1.3,1.06,1.42,3.87l.86,3.7c.06,1.03.8,1.82,2.23,2.36l1.16-.13c1.35-.11,2.79-.92,4.34-2.41.29-.86.01-2.39-.82-4.6l.47-.17c1.06,1,1.72,2.48,1.98,4.43v.26c-.54,2.06-2.98,3.54-7.3,4.43-1.63.43-3.11-1.32-4.43-5.24l.17-.34-.9-4-.43.95c-.26,1.78-1.89,4.81-4.9,9.11l-.69.17-.39-.3c-.17-.11.92-2.28,3.27-6.49.54-.83.96-2.21,1.25-4.12l-1.89.43h-.34c-.32.06-.59-.93-.82-2.96l-.21-2.11c.26-1.12.23-2.52-.09-4.21l-.26-2.32c0-.43.24-.72.73-.86Zm4.77,2.11c-.54,0-1.53.36-2.96,1.07l-.56.52.17,2.19.09.09,5.24-1.98h.39l.64.64.52-.95.09-.43c-.17-.89-1.38-1.27-3.61-1.16Zm2.62,3.14c-.2.37-2.03,1.25-5.5,2.62l-.47.47.13,2.06.17.09,1.33-.64c-.17-.23.26-.56,1.29-.99.57-.06,1.59-1.26,3.05-3.61Z"/>
    <path class="cls-2" d="m133.1,165.44c.54.06,1.02.27,1.42.64l3.35-.17c1.09.06,1.83.72,2.23,1.98.31,1.26.14,2.82-.52,4.68l.43.34v.73l-2.54,3.27c-.29.29-.67.37-1.16.26l-.43-.17-2.36,1.16c-.17,0-.23.5-.17,1.5v.77c-.17.06-.26.92-.26,2.58l-.26,3.27-.21.26-.17,1.89-.56,1.72-.6.09-.26-.26.77-10.48v-4.55c.09-.09.11-.46.09-1.12l.3-6.4c-.17-1,.13-1.66.9-1.98Zm4.94,6.4l-4.25,2.54-.26.34v1.25h.26c.97-.23,2.09-.79,3.35-1.68.49-.26.79-1.07.9-2.45Zm-.34-4.13l-2.45.17c-1.15-.49-1.62.56-1.42,3.14v.9c.17.23,1.19-.34,3.05-1.72l1.63-.99v-.6c-.11-.54-.39-.84-.82-.9Zm5.41,9.28h.73c.46.17.69.59.69,1.25h2.06c1.15.26,1.9.95,2.28,2.06.31.09.4,1.29.26,3.61l-.09,6.83c-.11.86-.53,1.38-1.25,1.55l-1.72-.43-1.89.34c-.06.17-.82.11-2.28-.17-.4-.29-.57-.69-.52-1.2l.73-.69-.21-.64.13-2.23c-.63-.32-.67-.97-.13-1.98.2.11.27-.19.21-.9l.26-4.43c.23,0,.26-.69.09-2.06v-.3l.64-.6Zm4.04,8.25c0,.14-.42.33-1.25.56l-1.98.99-.39,3.44c1.15.23,2.41.03,3.78-.6l.09-3.44-.26-.95Zm-1.25-5.2c-1.58-.11-2.18.7-1.8,2.45l-.09,1.33.09.47,2.88-.73.43.09.21-.3c.06-.89-.1-1.72-.47-2.49-.11-.29-.44-.56-.99-.82h-.26Zm12.25-18.82h.82c.97-.09,1.6.6,1.89,2.06-.23,1.92-.32,6.36-.26,13.32.57,3.18,1.02,7.03,1.33,11.56v.26c.2.06.26,1.02.17,2.88v.47c-.54,1.49-1.42,2.21-2.62,2.15-1,.34-1.96-.2-2.88-1.63v-.69c.14-.2.53,0,1.16.6,1.35.97,2.26.59,2.75-1.16.4-.06-.09-4.57-1.46-13.54-.23-1.03-.34-2.74-.34-5.11-1.4,1.12-3.24,1.89-5.5,2.32l-1.8.21h-.39c-.66,0-.99-.16-.99-.47-.34-.2-.26-.99.26-2.36.14,0,.2-.93.17-2.79l-.17-4.21-.26-1.07c.06-.66.46-.96,1.2-.9l.52.17c-.23-.66.83-1.09,3.18-1.29l3.22-.77Zm.56,7l-4.64,2.54-1.03.64-.95-.09-.52,1.59c1.92.26,4.33-.57,7.22-2.49v-2.11l-.09-.09Zm-.47-5.24l-5.41,1.29-.73-.09c.14.23.2,1.93.17,5.11.14.26,1.78-.46,4.9-2.15l.43-.26,1.38.09c.11-.26.09-1.62-.09-4.08l-.64.09Z"/>
    <path class="cls-2" d="m147.48,251.69h-1.85v-44h1.85v44Z"/>
  </g>
</svg>