<!--Scalable Vector Graphic-->
<svg xmlns="http://www.w3.org/2000/svg" x="0px" y="0px"
width="30" height="30"
viewBox="0 0 171 171"
style=" fill:#000000;"><g fill="none" fill-rule="nonzero" stroke="none" stroke-width="1" stroke-linecap="butt" stroke-linejoin="miter" stroke-miterlimit="10" stroke-dasharray="" stroke-dashoffset="0" font-family="none" font-weight="none" font-size="none" text-anchor="none" style="mix-blend-mode: normal"><path d="M0,171.98438v-171.98437h171.98438v171.98438z" fill="none"></path><g fill="#ffffff"><path d="M74.1,17.1c-31.41272,0 -57,25.58728 -57,57c0,31.41272 25.58728,57 57,57c13.6601,0 26.20509,-4.85078 36.03692,-12.90293l34.03301,34.03301c1.42965,1.48907 3.55262,2.08891 5.55014,1.56818c1.99752,-0.52073 3.55746,-2.08067 4.07819,-4.07819c0.52073,-1.99752 -0.0791,-4.12049 -1.56818,-5.55014l-34.03301,-34.03301c8.05215,-9.83182 12.90293,-22.37682 12.90293,-36.03692c0,-31.41272 -25.58728,-57 -57,-57zM74.1,28.5c25.2517,0 45.6,20.3483 45.6,45.6c0,25.2517 -20.3483,45.6 -45.6,45.6c-25.2517,0 -45.6,-20.3483 -45.6,-45.6c0,-25.2517 20.3483,-45.6 45.6,-45.6zM74.01094,45.52207c-3.14364,0.04914 -5.65399,2.6342 -5.61094,5.77793v17.1h-17.1c-2.05562,-0.02907 -3.96766,1.05094 -5.00396,2.82648c-1.0363,1.77554 -1.0363,3.97151 0,5.74705c1.0363,1.77554 2.94834,2.85555 5.00396,2.82648h17.1v17.1c-0.02907,2.05562 1.05094,3.96766 2.82648,5.00396c1.77554,1.0363 3.97151,1.0363 5.74705,0c1.77554,-1.0363 2.85555,-2.94834 2.82648,-5.00396v-17.1h17.1c2.05562,0.02907 3.96766,-1.05094 5.00396,-2.82648c1.0363,-1.77554 1.0363,-3.97151 0,-5.74705c-1.0363,-1.77554 -2.94834,-2.85555 -5.00396,-2.82648h-17.1v-17.1c0.0211,-1.54071 -0.58241,-3.02434 -1.67301,-4.11284c-1.0906,-1.0885 -2.57539,-1.68915 -4.11606,-1.66509z"></path></g></g></svg>